<svg width="14" height="9" viewBox="0 0 14 9" fill="none" xmlns="http://www.w3.org/2000/svg">
<path d="M0.352273 9V0.272727H6.23295V1.79403H2.19744V3.87358H5.9304V5.39489H2.19744V7.47869H6.25V9H0.352273ZM9.48118 5.21591V9H7.66584V2.45455H9.39595V3.60938H9.47266C9.61754 3.22869 9.86044 2.92756 10.2013 2.70597C10.5423 2.48153 10.9556 2.36932 11.4414 2.36932C11.896 2.36932 12.2923 2.46875 12.6303 2.66761C12.9684 2.86648 13.2312 3.15057 13.4187 3.51989C13.6062 3.88636 13.6999 4.32386 13.6999 4.83239V9H11.8846V5.15625C11.8874 4.75568 11.7852 4.44318 11.5778 4.21875C11.3704 3.99148 11.0849 3.87784 10.7212 3.87784C10.4769 3.87784 10.261 3.9304 10.0735 4.03551C9.88885 4.14062 9.74396 4.29403 9.63885 4.49574C9.53658 4.6946 9.48402 4.93466 9.48118 5.21591Z" fill="black"/>
</svg>
