<svg width="120" height="28" viewBox="0 0 120 28" fill="none" xmlns="http://www.w3.org/2000/svg">
<rect width="120" height="28" fill="#303030"/>
<g clip-path="url(#clip0_136_17)">
<path d="M6 6H22V22H6V6Z" fill="#F26522"/>
<path d="M9.38614 21.2999V13.9931H14.227V15.2539H10.9154V17.0161H14.0396V18.1908H10.9154V20.0391H14.227V21.2999H9.38614ZM18.4501 21.4873C17.8695 21.4873 17.3648 21.3995 16.9361 21.224C16.5073 21.0484 16.1698 20.802 15.9233 20.4847C15.6803 20.164 15.5435 19.7876 15.5132 19.3555L15.5081 19.2745H16.9816L16.9867 19.3251C17.0069 19.5074 17.0812 19.6677 17.2095 19.8061C17.3411 19.9412 17.5167 20.0475 17.7361 20.1252C17.9555 20.2028 18.207 20.2416 18.4906 20.2416C18.764 20.2416 19.0037 20.2011 19.2096 20.1201C19.4156 20.0391 19.5759 19.9277 19.6907 19.7859C19.8088 19.6407 19.8679 19.4753 19.8679 19.2897V19.2846C19.8679 19.0449 19.77 18.8525 19.5742 18.7073C19.3818 18.5622 19.0577 18.4423 18.602 18.3478L17.8323 18.1908C17.0728 18.0356 16.5208 17.7807 16.1765 17.4262C15.8322 17.0718 15.66 16.6177 15.66 16.0641V16.059C15.66 15.6067 15.7799 15.2117 16.0195 14.8741C16.2592 14.5366 16.5883 14.2749 17.0069 14.0893C17.4255 13.9002 17.9049 13.8057 18.445 13.8057C19.0122 13.8057 19.4983 13.8985 19.9034 14.0842C20.3118 14.2665 20.6308 14.518 20.8604 14.8387C21.0899 15.156 21.2199 15.5189 21.2503 15.9274L21.2554 15.9932H19.8173L19.8071 15.9324C19.7768 15.7569 19.7025 15.6033 19.5843 15.4717C19.4696 15.34 19.3143 15.237 19.1185 15.1628C18.9261 15.0851 18.7016 15.0463 18.445 15.0463C18.1952 15.0463 17.9758 15.0834 17.7867 15.1577C17.5977 15.232 17.4509 15.3366 17.3462 15.4717C17.2416 15.6033 17.1892 15.7603 17.1892 15.9426V15.9476C17.1892 16.1839 17.2838 16.3781 17.4728 16.53C17.6652 16.6785 17.9758 16.7966 18.4045 16.8844L19.1793 17.0414C19.6957 17.146 20.116 17.2878 20.4401 17.4667C20.7676 17.6457 21.0089 17.8701 21.1642 18.1402C21.3195 18.4103 21.3971 18.736 21.3971 19.1175V19.1226C21.3971 19.6053 21.2773 20.0239 21.0376 20.3783C20.8013 20.7294 20.462 21.0029 20.0198 21.1987C19.581 21.3911 19.0577 21.4873 18.4501 21.4873Z" fill="#303030"/>
</g>
<path d="M29.8545 17V9.9541H34.5225V11.1699H31.3291V12.8691H34.3418V14.002H31.3291V15.7842H34.5225V17H29.8545ZM40.0684 17.1807C39.388 17.1807 38.8005 17.0309 38.3057 16.7314C37.8109 16.432 37.43 16.0055 37.1631 15.4521C36.8962 14.8988 36.7627 14.2412 36.7627 13.4795V13.4697C36.7627 12.708 36.8962 12.0505 37.1631 11.4971C37.43 10.9437 37.8092 10.5189 38.3008 10.2227C38.7956 9.92318 39.3848 9.77344 40.0684 9.77344C40.625 9.77344 41.1247 9.88249 41.5674 10.1006C42.0133 10.3187 42.373 10.6198 42.6465 11.0039C42.9199 11.388 43.0794 11.8275 43.125 12.3223V12.3857H41.6943L41.6895 12.3516C41.6406 12.0879 41.5413 11.8568 41.3916 11.6582C41.2419 11.4564 41.0531 11.3001 40.8252 11.1895C40.6006 11.0788 40.3483 11.0234 40.0684 11.0234C39.7005 11.0234 39.3815 11.1227 39.1113 11.3213C38.8411 11.5166 38.6328 11.7982 38.4863 12.166C38.3431 12.5306 38.2715 12.9652 38.2715 13.4697V13.4795C38.2715 13.9808 38.3431 14.4154 38.4863 14.7832C38.6328 15.151 38.8411 15.4342 39.1113 15.6328C39.3815 15.8314 39.7021 15.9307 40.0732 15.9307C40.3564 15.9307 40.6087 15.8802 40.8301 15.7793C41.0547 15.6751 41.2402 15.5303 41.3867 15.3447C41.5365 15.1559 41.6357 14.9362 41.6846 14.6855L41.6943 14.6416H43.1299V14.7002C43.0778 15.1917 42.9167 15.623 42.6465 15.9941C42.3763 16.3652 42.0215 16.6566 41.582 16.8682C41.1426 17.0765 40.638 17.1807 40.0684 17.1807ZM45.4873 17V9.9541H47.1768L49.125 15.1104H49.2129L51.1562 9.9541H52.8457V17H51.5322V12.2051H50.8047L52.2109 10.1494L49.6279 17H48.7051L46.127 10.1494L47.5283 12.2051H46.8008V17H45.4873ZM55.0566 17L57.5029 9.9541H58.7578V11.3604H58.3281L56.6045 17H55.0566ZM56.3652 15.291L56.7266 14.1875H59.9834L60.3447 15.291H56.3652ZM60.1348 17L58.416 11.3604V9.9541H59.2363L61.6875 17H60.1348ZM66.4033 17.1807C65.8434 17.1807 65.3568 17.096 64.9434 16.9268C64.5299 16.7575 64.2044 16.5199 63.9668 16.2139C63.7324 15.9046 63.6006 15.5417 63.5713 15.125L63.5664 15.0469H64.9873L64.9922 15.0957C65.0117 15.2715 65.0833 15.4261 65.207 15.5596C65.334 15.6898 65.5033 15.7923 65.7148 15.8672C65.9264 15.9421 66.1689 15.9795 66.4424 15.9795C66.7061 15.9795 66.9372 15.9404 67.1357 15.8623C67.3343 15.7842 67.4889 15.6768 67.5996 15.54C67.7135 15.4001 67.7705 15.2406 67.7705 15.0615V15.0566C67.7705 14.8255 67.6761 14.64 67.4873 14.5C67.3018 14.36 66.9893 14.2445 66.5498 14.1533L65.8076 14.002C65.0752 13.8522 64.543 13.6064 64.2109 13.2646C63.8789 12.9229 63.7129 12.485 63.7129 11.9512V11.9463C63.7129 11.5101 63.8285 11.1292 64.0596 10.8037C64.2907 10.4782 64.6081 10.2259 65.0117 10.0469C65.4154 9.86458 65.8776 9.77344 66.3984 9.77344C66.9453 9.77344 67.4141 9.86296 67.8047 10.042C68.1986 10.2178 68.5062 10.4603 68.7275 10.7695C68.9489 11.0755 69.0742 11.4255 69.1035 11.8193L69.1084 11.8828H67.7217L67.7119 11.8242C67.6826 11.6549 67.611 11.5068 67.4971 11.3799C67.3864 11.2529 67.2367 11.1536 67.0479 11.082C66.8623 11.0072 66.6458 10.9697 66.3984 10.9697C66.1576 10.9697 65.946 11.0055 65.7637 11.0771C65.5814 11.1488 65.4398 11.2497 65.3389 11.3799C65.238 11.5068 65.1875 11.6582 65.1875 11.834V11.8389C65.1875 12.0667 65.2786 12.2539 65.4609 12.4004C65.6465 12.5436 65.946 12.6576 66.3594 12.7422L67.1064 12.8936C67.6045 12.9945 68.0098 13.1312 68.3223 13.3037C68.638 13.4762 68.8708 13.6927 69.0205 13.9531C69.1702 14.2135 69.2451 14.5277 69.2451 14.8955V14.9004C69.2451 15.3659 69.1296 15.7695 68.8984 16.1113C68.6706 16.4499 68.3434 16.7135 67.917 16.9023C67.4938 17.0879 66.9893 17.1807 66.4033 17.1807ZM73.8682 17.1123C73.3083 17.1123 72.8314 17.0033 72.4375 16.7852C72.0469 16.5638 71.749 16.2448 71.5439 15.8281C71.3389 15.4082 71.2363 14.9004 71.2363 14.3047V14.2949C71.2363 13.7025 71.3389 13.1995 71.5439 12.7861C71.749 12.3727 72.0469 12.057 72.4375 11.8389C72.8314 11.6175 73.3083 11.5068 73.8682 11.5068C74.3434 11.5068 74.752 11.5882 75.0938 11.751C75.4355 11.9137 75.7057 12.1432 75.9043 12.4395C76.1029 12.7357 76.2233 13.084 76.2656 13.4844V13.499H74.9424L74.9375 13.4893C74.8887 13.2288 74.7747 13.0205 74.5957 12.8643C74.4199 12.7048 74.179 12.625 73.873 12.625C73.6191 12.625 73.4027 12.6901 73.2236 12.8203C73.0479 12.9473 72.9144 13.1344 72.8232 13.3818C72.7321 13.6292 72.6865 13.9336 72.6865 14.2949V14.3047C72.6865 14.666 72.7321 14.9736 72.8232 15.2275C72.9176 15.4782 73.0527 15.6686 73.2285 15.7988C73.4043 15.929 73.6191 15.9941 73.873 15.9941C74.166 15.9941 74.4004 15.9258 74.5762 15.7891C74.752 15.6523 74.8708 15.4473 74.9326 15.1738L74.9424 15.1592L76.2607 15.1543V15.1885C76.2087 15.5758 76.0833 15.9144 75.8848 16.2041C75.6862 16.4938 75.4176 16.7184 75.0791 16.8779C74.7406 17.0342 74.3369 17.1123 73.8682 17.1123ZM78.3789 17V11.624H79.8047V12.459H79.8926C79.9805 12.166 80.1416 11.9398 80.376 11.7803C80.6104 11.6175 80.9017 11.5361 81.25 11.5361C81.3477 11.5361 81.4421 11.5426 81.5332 11.5557C81.6276 11.5687 81.7106 11.585 81.7822 11.6045V12.8496C81.6748 12.8236 81.5658 12.804 81.4551 12.791C81.3477 12.7747 81.2386 12.7666 81.1279 12.7666C80.8577 12.7666 80.6234 12.8171 80.4248 12.918C80.2262 13.0156 80.0732 13.1556 79.9658 13.3379C79.8584 13.5202 79.8047 13.7383 79.8047 13.9922V17H78.3789ZM83.7441 17V11.624H85.1699V17H83.7441ZM84.4619 10.7988C84.2438 10.7988 84.055 10.7223 83.8955 10.5693C83.736 10.4131 83.6562 10.2259 83.6562 10.0078C83.6562 9.78646 83.736 9.59928 83.8955 9.44629C84.055 9.29004 84.2438 9.21191 84.4619 9.21191C84.6833 9.21191 84.8721 9.29004 85.0283 9.44629C85.1846 9.59928 85.2627 9.78646 85.2627 10.0078C85.2627 10.2259 85.1846 10.4131 85.0283 10.5693C84.8721 10.7223 84.6833 10.7988 84.4619 10.7988ZM87.6055 18.7822V11.624H89.0312V12.4541H89.1191C89.2135 12.262 89.3372 12.0977 89.4902 11.9609C89.6465 11.8242 89.8288 11.7201 90.0371 11.6484C90.2454 11.5736 90.4766 11.5361 90.7305 11.5361C91.1797 11.5361 91.5671 11.6484 91.8926 11.873C92.2181 12.0977 92.4688 12.4167 92.6445 12.8301C92.8236 13.2402 92.9131 13.7318 92.9131 14.3047V14.3145C92.9131 14.8906 92.8252 15.3854 92.6494 15.7988C92.4736 16.2122 92.223 16.5296 91.8975 16.751C91.5719 16.9723 91.1829 17.083 90.7305 17.083C90.4831 17.083 90.2536 17.0456 90.042 16.9707C89.8337 16.8926 89.6497 16.7835 89.4902 16.6436C89.334 16.5036 89.2103 16.3359 89.1191 16.1406H89.0312V18.7822H87.6055ZM90.2422 15.9014C90.4961 15.9014 90.7126 15.8379 90.8916 15.7109C91.0739 15.584 91.2139 15.4017 91.3115 15.1641C91.4124 14.9264 91.4629 14.6432 91.4629 14.3145V14.3047C91.4629 13.9759 91.4124 13.6927 91.3115 13.4551C91.2139 13.2174 91.0739 13.0352 90.8916 12.9082C90.7126 12.7812 90.4961 12.7178 90.2422 12.7178C89.9915 12.7178 89.7734 12.7812 89.5879 12.9082C89.4056 13.0352 89.264 13.2174 89.1631 13.4551C89.0654 13.6895 89.0166 13.9727 89.0166 14.3047V14.3145C89.0166 14.64 89.0671 14.9232 89.168 15.1641C89.2689 15.4017 89.4105 15.584 89.5928 15.7109C89.7783 15.8379 89.9948 15.9014 90.2422 15.9014ZM97.3115 17.0195C96.6605 17.0195 96.1917 16.9056 95.9053 16.6777C95.6188 16.4466 95.4756 16.0706 95.4756 15.5498V12.6982H94.6455V11.624H95.4756V10.3398H96.916V11.624H98.0244V12.6982H96.916V15.2227C96.916 15.4635 96.9697 15.641 97.0771 15.7549C97.1878 15.8656 97.3636 15.9209 97.6045 15.9209C97.6956 15.9209 97.7705 15.9193 97.8291 15.916C97.891 15.9095 97.9561 15.903 98.0244 15.8965V16.9561C97.9365 16.9723 97.8307 16.987 97.707 17C97.5833 17.013 97.4515 17.0195 97.3115 17.0195ZM106.597 17.1807C106.187 17.1807 105.806 17.1074 105.454 16.9609C105.103 16.8145 104.793 16.5915 104.526 16.292C104.263 15.9925 104.056 15.6149 103.906 15.1592C103.76 14.7035 103.687 14.1647 103.687 13.543V13.5332C103.687 12.7487 103.804 12.0765 104.038 11.5166C104.276 10.9535 104.613 10.5221 105.049 10.2227C105.485 9.92318 106.003 9.77344 106.602 9.77344C107.057 9.77344 107.467 9.85645 107.832 10.0225C108.197 10.1885 108.496 10.4147 108.73 10.7012C108.968 10.9876 109.123 11.3148 109.194 11.6826L109.204 11.7314H107.764L107.744 11.6875C107.689 11.5378 107.607 11.4092 107.5 11.3018C107.396 11.1911 107.269 11.1048 107.119 11.043C106.969 10.9811 106.799 10.9502 106.606 10.9502C106.268 10.9502 105.99 11.0511 105.771 11.2529C105.553 11.4548 105.389 11.7282 105.278 12.0732C105.171 12.4183 105.107 12.804 105.088 13.2305C105.085 13.2793 105.083 13.3281 105.083 13.377C105.083 13.4225 105.083 13.4714 105.083 13.5234L105.303 14.7002C105.303 14.9476 105.36 15.1706 105.474 15.3691C105.588 15.5677 105.742 15.7256 105.938 15.8428C106.133 15.9567 106.349 16.0137 106.587 16.0137C106.825 16.0137 107.039 15.9567 107.231 15.8428C107.427 15.7288 107.581 15.5758 107.695 15.3838C107.812 15.1885 107.871 14.9704 107.871 14.7295V14.7197C107.871 14.4723 107.816 14.2542 107.705 14.0654C107.594 13.8734 107.443 13.722 107.251 13.6113C107.062 13.5007 106.844 13.4453 106.597 13.4453C106.356 13.4453 106.138 13.499 105.942 13.6064C105.747 13.7139 105.591 13.862 105.474 14.0508C105.36 14.2363 105.303 14.4512 105.303 14.6953V14.7002H105.01V13.3916H105.181C105.269 13.2093 105.392 13.04 105.552 12.8838C105.711 12.7275 105.911 12.6022 106.152 12.5078C106.393 12.4102 106.675 12.3613 106.997 12.3613C107.456 12.3613 107.858 12.4606 108.203 12.6592C108.548 12.8577 108.817 13.1312 109.009 13.4795C109.201 13.8278 109.297 14.2249 109.297 14.6709V14.6807C109.297 15.1592 109.181 15.5872 108.95 15.9648C108.722 16.3424 108.405 16.6403 107.998 16.8584C107.594 17.0732 107.127 17.1807 106.597 17.1807Z" fill="white"/>
<defs>
<clipPath id="clip0_136_17">
<rect width="16" height="16" fill="white" transform="translate(6 6)"/>
</clipPath>
</defs>
</svg>
