<svg width="64" height="64" viewBox="0 0 64 64" fill="none" xmlns="http://www.w3.org/2000/svg">
<g clip-path="url(#clip0_150_9)">
<path d="M0 0H64V64H0V0Z" fill="#F7DF1E"/>
<path d="M16.8279 53.483L21.7254 50.519C22.6704 52.1942 23.5299 53.6117 25.5916 53.6117C27.5679 53.6117 28.8141 52.8387 28.8141 49.8317V29.3822H34.8284V49.9167C34.8284 56.146 31.1769 58.9815 25.8494 58.9815C21.0381 58.9815 18.2454 56.4897 16.8276 53.4825M38.0951 52.8385L42.9921 50.0032C44.2814 52.1085 45.9569 53.655 48.9209 53.655C51.4131 53.655 53.0021 52.409 53.0021 50.6905C53.0021 48.6285 51.3696 47.898 48.6201 46.6955L47.1169 46.0505C42.7776 44.2037 39.8994 41.8837 39.8994 36.9862C39.8994 32.4752 43.3361 29.0382 48.7064 29.0382C52.5299 29.0382 55.2794 30.3702 57.2554 33.85L52.5724 36.8575C51.5411 35.0102 50.4246 34.28 48.7061 34.28C46.9446 34.28 45.8276 35.397 45.8276 36.8575C45.8276 38.6617 46.9446 39.3925 49.5221 40.5095L51.0256 41.1537C56.1381 43.345 59.0164 45.5787 59.0164 50.6047C59.0164 56.0182 54.7634 58.9822 49.0496 58.9822C43.4649 58.9822 39.8561 56.3187 38.0949 52.8387" fill="black"/>
</g>
<defs>
<clipPath id="clip0_150_9">
<rect width="64" height="64" fill="white"/>
</clipPath>
</defs>
</svg>
