<svg width="64" height="64" viewBox="0 0 64 64" fill="none" xmlns="http://www.w3.org/2000/svg">
<path d="M6.33398 7.034H57.666V56.966H6.33398V7.034Z" fill="#0C0824"/>
<path d="M6.334 7.03401H57.666V56.966H6.334V7.03401ZM4 59.3H60V4.70001H4V59.3ZM41.754 27.1C39.91 27.1 39.28 28.034 39.28 28.804C39.28 29.644 39.7 30.228 42.174 31.51C45.838 33.284 46.974 34.986 46.974 37.484C46.974 41.218 44.128 43.224 40.278 43.224C38.6259 43.2833 36.9841 42.9401 35.494 42.224C35.33 42.154 35.308 42.038 35.308 41.85V38.416C35.308 38.182 35.424 38.112 35.588 38.23C36.9868 39.1295 38.615 39.6072 40.278 39.606C42.122 39.606 42.892 38.836 42.892 37.786C42.892 36.946 42.356 36.2 39.998 34.986C36.684 33.4 35.308 31.786 35.308 29.106C35.308 26.096 37.664 23.6 41.748 23.6C43.1695 23.5408 44.5887 23.7631 45.924 24.254C46.0006 24.3042 46.0625 24.3737 46.1036 24.4556C46.1447 24.5374 46.1635 24.6286 46.158 24.72V27.92C46.158 28.106 46.042 28.224 45.808 28.154C44.5743 27.4437 43.1713 27.0809 41.748 27.104L41.754 27.1ZM21.686 29.876C22.222 29.922 22.642 29.922 23.576 29.922C26.306 29.922 28.872 28.966 28.872 25.256C28.872 22.292 27.028 20.8 23.926 20.8C22.992 20.8 22.106 20.846 21.686 20.87V29.876ZM17.532 17.476C17.532 17.312 17.858 17.196 18.046 17.196C20.0516 17.1142 22.0587 17.0755 24.066 17.08C30.53 17.08 33.05 20.626 33.05 25.154C33.05 31.08 28.756 33.624 23.484 33.624C22.598 33.624 22.294 33.578 21.664 33.578V42.538C21.664 42.724 21.594 42.818 21.384 42.818H17.814C17.628 42.818 17.534 42.748 17.534 42.538V17.486L17.532 17.476Z" fill="#31C5F0"/>
</svg>
