<svg width="64" height="64" viewBox="0 0 64 64" fill="none" xmlns="http://www.w3.org/2000/svg">
<g clip-path="url(#clip0_150_19)">
<path d="M46.5941 29.9015C46.6681 30.365 46.7441 30.8285 46.8351 31.2815H51.3126V29.9015H46.5941ZM47.3361 33.3495C47.4286 33.6665 47.5266 33.982 47.6351 34.296C47.8954 34.4253 48.1482 34.5703 48.3936 34.731H54.0696V33.3495H47.3361ZM38.1206 33.9905C37.9076 34.068 37.6991 34.1585 37.4946 34.257V34.259C37.6996 34.16 37.9071 34.068 38.1206 33.9905ZM17.4966 51.2755V52.6555H34.0751V51.2755H17.4966ZM27.1516 54.7235V56.0995H40.8001V54.7235H27.1516Z" fill="#3C6EB4"/>
<path d="M30.557 8.13C28.102 8.13 25.6965 8.4135 24.264 8.9835C20.319 10.4275 17.289 14.371 16.391 19.1485C15.2085 24.7415 15.279 29.119 14.105 33.2375C14.6418 32.8284 15.2364 32.5015 15.8695 32.2675C16.7865 31.9045 18.324 31.7225 19.894 31.7225C21.464 31.7225 23.069 31.905 24.1095 32.2675C26.395 33.1025 28.198 35.2475 28.9445 37.9095H33.804C34.7995 36.069 36.319 34.648 38.1205 33.9905C40.08 33.2135 44.703 33.2155 46.929 33.9905C47.1705 34.0785 47.405 34.1855 47.636 34.3C46.105 29.867 46.2995 25.2245 45.015 19.1485C44.1175 14.371 41.0865 10.4275 37.142 8.9835C35.515 8.4155 33.0115 8.1305 30.557 8.13Z" fill="#CCCCCC"/>
<path d="M22.6375 24.8935C22.1944 24.8941 21.7697 25.0799 21.4565 25.4102C21.1434 25.7405 20.9675 26.1882 20.9675 26.655C20.9675 27.1218 21.1434 27.5695 21.4565 27.8998C21.7697 28.2301 22.1944 28.4159 22.6375 28.4165C23.0807 28.4161 23.5056 28.2303 23.8188 27.9C24.1321 27.5697 24.308 27.1219 24.308 26.655C24.308 26.1882 24.1321 25.7405 23.819 25.4102C23.5059 25.0799 23.0806 24.8941 22.6375 24.8935ZM39.5325 24.8935C39.0894 24.8941 38.6647 25.0799 38.3515 25.4102C38.0384 25.7405 37.8625 26.1882 37.8625 26.655C37.8625 27.1218 38.0384 27.5695 38.3515 27.8998C38.6647 28.2301 39.0894 28.4159 39.5325 28.4165C39.7524 28.4169 39.9701 28.3717 40.1733 28.2833C40.3765 28.195 40.5612 28.0653 40.7167 27.9017C40.8723 27.7381 40.9958 27.5437 41.08 27.3298C41.1642 27.1159 41.2075 26.8866 41.2075 26.655C41.2075 26.4234 41.1642 26.1941 41.08 25.9802C40.9958 25.7662 40.8723 25.5719 40.7167 25.4083C40.5612 25.2447 40.3765 25.115 40.1733 25.0267C39.9701 24.9383 39.7524 24.8931 39.5325 24.8935Z" fill="#E7E8E9"/>
<path d="M25.4525 25.3525L19.2385 27.0185L19.4165 27.6845L25.6315 26.0185L25.4525 25.3525ZM37.2125 25.3525L37.0335 26.0185L43.247 27.6845L43.426 27.0185L37.2125 25.3525ZM26.0745 26.3565L19.825 29.966L20.17 30.5625L26.4185 26.9535L26.0745 26.3565ZM36.594 26.3565L36.249 26.9535L42.498 30.5625L42.843 29.966L36.594 26.3565ZM26.5315 27.554L22.228 31.8635C22.5207 31.9012 22.8002 31.9463 23.0665 31.999L27.019 28.041L26.5315 27.554ZM36.1365 27.554L35.6495 28.041L41.054 33.454C41.3607 33.434 41.6724 33.4207 41.989 33.414L36.1365 27.554ZM26.7405 29.123L24.762 32.553C24.9677 32.6543 25.1685 32.7663 25.3645 32.889L27.338 29.467L26.7405 29.123ZM35.928 29.123L35.3305 29.467L37.974 34.051C38.023 34.0315 38.0705 34.0085 38.1205 33.9905C38.2755 33.929 38.453 33.874 38.639 33.8225L35.928 29.123Z" fill="#A7A9AC"/>
<path d="M36.6305 25.42C36.6306 26.0909 36.4918 26.7552 36.2221 27.3751C35.9523 27.9949 35.5569 28.5581 35.0585 29.0326C34.56 29.507 33.9682 29.8833 33.3169 30.1401C32.6656 30.3968 31.9675 30.529 31.2625 30.529C30.5575 30.5291 29.8594 30.397 29.208 30.1402C28.5567 29.8835 27.9648 29.5072 27.4663 29.0327C26.9678 28.5583 26.5723 27.9951 26.3026 27.3752C26.0328 26.7553 25.894 26.0909 25.894 25.42C25.894 24.7491 26.0329 24.0848 26.3027 23.4649C26.5725 22.8451 26.968 22.2819 27.4665 21.8076C27.965 21.3332 28.5568 20.9569 29.2081 20.7002C29.8595 20.4435 30.5576 20.3114 31.2625 20.3115C32.6861 20.3116 34.0514 20.8499 35.058 21.8079C36.0646 22.7659 36.6305 24.0652 36.6305 25.42Z" fill="white"/>
<path d="M33.5535 24.499C33.3735 24.0325 33.3735 23.0995 32.8335 23.0995C32.2935 23.0995 31.7935 22.7495 31.2625 22.7495C30.731 22.7495 30.2325 23.0995 29.6915 23.0995C29.1515 23.0995 29.1515 24.0325 28.9715 24.4995C28.7915 24.9655 31.2625 26.4815 31.2625 26.4815C31.2625 26.4815 33.7335 24.9655 33.5535 24.499Z" fill="#808080"/>
<path d="M28.6995 37.145C28.8645 37.588 28.9945 38.05 29.096 38.5255H33.4955C33.717 38.039 33.9745 37.577 34.263 37.1445L28.6995 37.145ZM50.788 37.1455C51.0793 37.5846 51.3354 38.046 51.554 38.5255H57.09V37.1455H50.788Z" fill="#3C6EB4"/>
<path d="M19.8945 31.7225C18.3245 31.7225 16.7865 31.9045 15.8695 32.2675C13.3465 33.1895 11.411 35.7065 10.837 38.755C10.537 40.168 10.3645 41.4505 10.218 42.6585H29.761C29.6145 41.4505 29.446 40.1685 29.146 38.755C28.5725 35.7065 26.6325 33.19 24.109 32.268C23.068 31.9055 21.464 31.723 19.894 31.723L19.8945 31.7225Z" fill="#CCCCCC"/>
<path d="M14.8316 42.42C14.6036 42.4272 14.3837 42.5108 14.2041 42.6585H15.4841C15.2976 42.5056 15.0682 42.4219 14.8316 42.4205V42.42ZM25.6416 42.42C25.4134 42.4271 25.1934 42.5107 25.0136 42.6585H26.2946C26.1079 42.5054 25.878 42.4216 25.6411 42.4205L25.6416 42.42Z" fill="#E7E8E9"/>
<path d="M16.6009 42.5935L16.3589 42.6585H16.6189L16.6009 42.5935ZM24.1869 42.5935L24.1694 42.6585H24.4294L24.1869 42.5935Z" fill="#A7A9AC"/>
<path d="M20.349 39.5C19.4584 39.5023 18.6036 39.833 17.9649 40.4223C17.3262 41.0116 16.9538 41.8134 16.926 42.6585H23.767C23.7393 41.8142 23.3675 41.0131 22.7299 40.4239C22.0924 39.8348 21.2388 39.5035 20.349 39.5Z" fill="white"/>
<path d="M20.349 41.053C20.009 41.053 19.6905 41.278 19.345 41.278C18.9995 41.278 18.997 41.872 18.882 42.1695C18.842 42.2735 19.016 42.461 19.2495 42.6585H21.4475C21.6815 42.461 21.8515 42.2735 21.811 42.1695C21.696 41.872 21.698 41.278 21.3525 41.278C21.0075 41.278 20.689 41.053 20.349 41.053Z" fill="#808080"/>
<path d="M45.8681 0.7335L17.9991 0.8155C17.8959 0.815969 17.7942 0.83957 17.7013 0.884566C17.6085 0.929562 17.5269 0.994808 17.4626 1.0755L0.147605 22.9415C0.0840821 23.0224 0.0394419 23.1164 0.0169493 23.2168C-0.00554326 23.3171 -0.0053194 23.4212 0.0176045 23.5215L6.2976 50.703C6.3211 50.8042 6.36716 50.8989 6.43235 50.9798C6.49755 51.0608 6.58019 51.126 6.6741 51.1705L31.8166 63.201C31.9102 63.245 32.0125 63.2674 32.1159 63.2665C32.2193 63.2657 32.3213 63.2416 32.4141 63.196L57.4881 51.0185C57.5816 50.973 57.6637 50.907 57.7281 50.8253C57.7925 50.7437 57.8376 50.6485 57.8601 50.547L63.9836 23.331C64.006 23.2305 64.0056 23.1262 63.9824 23.0258C63.9592 22.9254 63.9138 22.8315 63.8496 22.751L46.4101 0.9885C46.3448 0.908064 46.2622 0.843373 46.1684 0.799228C46.0747 0.755083 45.9717 0.732618 45.8681 0.7335ZM45.5396 2.1135L62.5646 23.3535L56.5876 49.9245L32.1151 61.8125L7.5696 50.0715L1.4376 23.535L18.3366 2.1915L45.5396 2.1135Z" fill="#892CA0"/>
<path d="M53.3221 47.8685C53.0191 45.8065 52.8721 43.5635 52.3126 40.925C51.6986 37.666 49.6261 34.975 46.9286 33.99C44.7026 33.215 40.0801 33.213 38.1206 33.99C35.4231 34.975 33.3506 37.666 32.7366 40.925C32.1776 43.564 32.0301 45.8065 31.7271 47.8685" fill="#CCCCCC"/>
<path d="M37.0099 44.844C36.8597 44.8441 36.711 44.8752 36.5723 44.9357C36.4335 44.9962 36.3075 45.0849 36.2014 45.1966C36.0952 45.3083 36.011 45.4409 35.9537 45.5868C35.8963 45.7327 35.8668 45.8891 35.8669 46.047C35.8668 46.2049 35.8963 46.3612 35.9537 46.5072C36.011 46.6531 36.0952 46.7857 36.2014 46.8974C36.3075 47.0091 36.4335 47.0977 36.5723 47.1582C36.711 47.2187 36.8597 47.2499 37.0099 47.25C37.3132 47.2497 37.604 47.1228 37.8182 46.8972C38.0325 46.6716 38.1527 46.3658 38.1524 46.047C38.1527 45.7282 38.0325 45.4224 37.8182 45.1968C37.604 44.9712 37.3132 44.8443 37.0099 44.844ZM48.5649 44.844C48.4147 44.8441 48.266 44.8752 48.1273 44.9357C47.9885 44.9962 47.8625 45.0849 47.7564 45.1966C47.6502 45.3083 47.566 45.4409 47.5087 45.5868C47.4513 45.7327 47.4218 45.8891 47.4219 46.047C47.4218 46.2049 47.4513 46.3612 47.5087 46.5072C47.566 46.6531 47.6502 46.7857 47.7564 46.8974C47.8625 47.0091 47.9885 47.0977 48.1273 47.1582C48.266 47.2187 48.4147 47.2499 48.5649 47.25C48.8682 47.2497 49.159 47.1228 49.3732 46.8972C49.5875 46.6716 49.7077 46.3658 49.7074 46.047C49.7077 45.7282 49.5875 45.4224 49.3732 45.1968C49.159 44.9712 48.8682 44.8443 48.5649 44.844Z" fill="#E7E8E9"/>
<path d="M38.907 45.052L34.657 46.1905L34.836 46.8565L39.085 45.718L38.907 45.052ZM47.005 45.052L46.826 45.718L51.076 46.8565L51.255 46.1905L47.005 45.052ZM39.305 45.748L35.033 48.211L35.377 48.8075L39.6485 46.3455L39.305 45.748ZM46.6075 45.748L46.2625 46.3455L50.534 48.8075L50.879 48.211L46.6075 45.748Z" fill="#A7A9AC"/>
<path d="M46.5786 45.205C46.5786 46.1292 46.1918 47.0155 45.5034 47.6691C44.815 48.3226 43.8812 48.6899 42.9076 48.69C41.9338 48.69 41 48.3228 40.3114 47.6693C39.6229 47.0157 39.2361 46.1293 39.2361 45.205C39.2361 44.2807 39.6229 43.3943 40.3114 42.7407C41 42.0872 41.9338 41.72 42.9076 41.72C43.8812 41.7201 44.815 42.0874 45.5034 42.7409C46.1918 43.3945 46.5786 44.2808 46.5786 45.205Z" fill="white"/>
<path d="M44.4739 44.576C44.3509 44.258 44.3509 43.621 43.9814 43.621C43.6124 43.621 43.2714 43.383 42.9074 43.383C42.5439 43.383 42.2024 43.6215 41.8329 43.6215C41.4639 43.6215 41.4639 44.258 41.3404 44.5765C41.2174 44.8945 42.9074 45.9285 42.9074 45.9285C42.9074 45.9285 44.5974 44.8945 44.4739 44.576Z" fill="#808080"/>
<path d="M31.2631 19.796C28.0326 19.796 25.3781 22.307 25.3781 25.422C25.3781 28.537 28.0326 31.048 31.2631 31.048C34.4941 31.048 37.1486 28.537 37.1486 25.422C37.1486 22.307 34.4931 19.796 31.2631 19.796ZM31.2631 20.8305C33.9621 20.8305 36.1146 22.8945 36.1146 25.422C36.1146 27.95 33.9621 30.013 31.2631 30.013C28.5641 30.013 26.4116 27.95 26.4116 25.422C26.4116 22.8945 28.5646 20.8305 31.2631 20.8305ZM20.3491 38.9805C18.2221 38.9805 16.4591 40.6105 16.4016 42.6585H17.4361C17.4921 41.1985 18.7546 40.0145 20.3491 40.0145C21.9441 40.0145 23.2051 41.1985 23.2611 42.6585H24.2951C24.2386 40.611 22.4751 38.9805 20.3491 38.9805ZM42.9086 41.204C40.6161 41.204 38.7186 42.984 38.7186 45.203C38.7186 47.423 40.6161 49.206 42.9086 49.206C45.2011 49.206 47.0981 47.4225 47.0981 45.203C47.0981 42.984 45.2021 41.204 42.9086 41.204ZM42.9086 42.2385C44.6711 42.2385 46.0636 43.572 46.0636 45.2035C46.0636 46.8335 44.6711 48.172 42.9086 48.172C41.1461 48.172 39.7536 46.8335 39.7536 45.203C39.7536 43.5725 41.1466 42.2385 42.9086 42.2385Z" fill="#60605B"/>
<path d="M7.98096 42.6585V44.0385H32.212C32.2713 43.5902 32.339 43.1302 32.415 42.6585H7.98096ZM20.258 47.83V49.206H56.09V47.83H53.3175L53.3225 47.868H31.7265L31.7315 47.83H20.258Z" fill="#3C6EB4"/>
<path d="M30.558 7.61349H30.557C28.066 7.61349 25.642 7.88549 24.0795 8.50499C19.938 10.0265 16.8155 14.1175 15.887 19.043C15.061 22.9505 14.842 26.255 14.4025 29.247C14.215 30.526 13.9835 31.7445 13.6545 32.9355C11.974 34.263 10.767 36.3185 10.3255 38.6605C10.0175 40.117 9.84699 41.4305 9.69849 42.6585H10.7375C10.8815 41.4735 11.0495 40.2285 11.339 38.8635L11.343 38.8585V38.8495C11.888 35.958 13.728 33.6035 16.047 32.757L16.056 32.752L16.06 32.748C16.8465 32.436 18.3635 32.241 19.894 32.241C21.4225 32.241 22.9995 32.4315 23.936 32.7565C26.253 33.6045 28.0915 35.9595 28.636 38.8495V38.8585L28.64 38.8635C28.93 40.2285 29.0975 41.474 29.2415 42.6585H30.281C30.1325 41.4295 29.9625 40.1135 29.654 38.6555C29.049 35.4525 27.013 32.7785 24.2865 31.783H24.2825L24.2785 31.778C23.1325 31.38 21.5035 31.208 19.8935 31.207C18.2865 31.207 16.7295 31.3735 15.684 31.787C15.425 31.882 15.174 31.997 14.928 32.121C15.1305 31.2204 15.2973 30.3122 15.428 29.3985C15.8755 26.3475 16.0855 23.082 16.895 19.255L16.9 19.25V19.242C17.768 14.622 20.703 10.839 24.443 9.47L24.448 9.46599H24.4555C25.758 8.94799 28.143 8.648 30.558 8.6485C32.9695 8.6485 35.44 8.94 36.963 9.47C40.703 10.8385 43.638 14.6215 44.505 19.2415L44.51 19.2515V19.255C45.319 23.082 45.534 26.3475 45.9815 29.3985C46.183 30.7725 46.4445 32.1035 46.8215 33.416C45.6245 33.054 44.0195 32.891 42.424 32.891C40.709 32.891 39.0505 33.071 37.941 33.51C35.044 34.57 32.8785 37.41 32.233 40.8195C31.665 43.4985 31.514 45.759 31.215 47.791L32.2405 47.9425C32.548 45.851 32.6895 43.6295 33.2405 41.031L33.2455 41.026V41.0225C33.8295 37.92 35.807 35.3845 38.3005 34.4745H38.304L38.313 34.4695C39.163 34.1325 40.786 33.9245 42.4245 33.9245C44.062 33.9245 45.7485 34.128 46.7565 34.4785H46.7615C49.25 35.3915 51.2225 37.9235 51.8065 41.0225V41.031C52.357 43.629 52.5025 45.851 52.81 47.942L53.8365 47.791C53.538 45.7585 53.3865 43.498 52.819 40.819C52.246 37.7905 50.473 35.2125 48.054 33.9305C47.552 32.424 47.244 30.884 47.0035 29.247C46.565 26.257 46.3475 22.955 45.523 19.052C44.596 14.118 41.4715 10.015 37.322 8.496H37.313C35.581 7.891 33.053 7.61399 30.558 7.61349ZM22.773 13.845C22.2418 13.842 21.7171 13.9615 21.2397 14.1943C20.7622 14.427 20.3448 14.7667 20.02 15.187L19.7035 15.594L20.5265 16.226L20.842 15.8145C21.0579 15.5402 21.3297 15.315 21.6394 15.1539C21.9491 14.9928 22.2895 14.8994 22.638 14.88C23.288 14.8525 23.963 15.114 24.425 15.5725L24.793 15.9405L25.5245 15.2045L25.1565 14.841C24.5204 14.2129 23.6654 13.8561 22.7715 13.846L22.773 13.845ZM39.459 13.845C38.565 13.8554 37.7099 14.2125 37.074 14.841L36.706 15.2045L37.4335 15.9405L37.802 15.5725C38.038 15.3429 38.3179 15.1632 38.625 15.0443C38.932 14.9253 39.2599 14.8694 39.589 14.88C40.2765 14.91 40.969 15.2685 41.389 15.815L41.7055 16.226L42.5235 15.594L42.207 15.187C41.8829 14.7671 41.4664 14.4276 40.9898 14.1949C40.5132 13.9621 39.9894 13.8424 39.459 13.845ZM22.7465 18.4025C22.0612 18.4028 21.404 18.6823 20.9194 19.1797C20.4349 19.6771 20.1626 20.3516 20.1625 21.055C20.1625 21.7584 20.4347 22.4331 20.9193 22.9306C21.4038 23.4281 22.0611 23.7077 22.7465 23.708C23.0862 23.7083 23.4226 23.64 23.7365 23.5068C24.0504 23.3736 24.3357 23.1782 24.576 22.9319C24.8163 22.6855 25.0069 22.3929 25.137 22.0708C25.267 21.7488 25.334 21.4036 25.334 21.055C25.3339 20.7064 25.2669 20.3613 25.1368 20.0393C25.0067 19.7173 24.8161 19.4248 24.5758 19.1785C24.3355 18.9321 24.0503 18.7368 23.7364 18.6037C23.4225 18.4705 23.0861 18.4022 22.7465 18.4025ZM39.4805 18.4025C38.7952 18.4029 38.1382 18.6825 37.6538 19.1799C37.1693 19.6773 36.8971 20.3517 36.897 21.055C36.897 21.7583 37.1691 22.4329 37.6536 22.9304C38.138 23.4279 38.7952 23.7076 39.4805 23.708C40.1659 23.7077 40.8231 23.4281 41.3077 22.9306C41.7923 22.4331 42.0645 21.7584 42.0645 21.055C42.0644 20.3517 41.7922 19.6773 41.3077 19.1799C40.8233 18.6825 40.1657 18.4029 39.4805 18.4025ZM31.263 22.2325C30.884 22.2325 30.5735 22.349 30.3155 22.436C30.057 22.5235 29.8505 22.583 29.6915 22.583C29.408 22.583 29.1295 22.7385 28.978 22.921C28.827 23.103 28.7555 23.291 28.7005 23.47C28.5905 23.8265 28.537 24.189 28.4885 24.315C28.3775 24.602 28.4835 24.8305 28.5715 24.9805C28.659 25.1305 28.766 25.2485 28.8865 25.3705C29.1285 25.6135 29.4345 25.857 29.7435 26.084C30.06 26.316 30.3775 26.527 30.6135 26.681L30.601 26.889C30.4845 26.984 30.201 27.2355 29.731 27.3945C29.453 27.4885 29.173 27.522 28.93 27.46C28.7235 27.407 28.518 27.225 28.307 26.9495C28.3205 26.8405 28.3255 26.796 28.35 26.6165C28.3935 26.3025 28.4565 25.923 28.485 25.8105L27.4805 25.5595C27.4205 25.7995 27.3695 26.1495 27.3245 26.474C27.2795 26.798 27.2465 27.0755 27.2465 27.0755L27.225 27.2605L27.3245 27.416C27.689 27.989 28.175 28.3365 28.675 28.464C29.175 28.5915 29.66 28.5145 30.065 28.378C30.59 28.1995 31.018 27.913 31.254 27.733C31.4905 27.913 31.916 28.2005 32.4395 28.378C32.8445 28.515 33.3245 28.592 33.8245 28.464C34.3245 28.336 34.811 27.989 35.175 27.416L35.275 27.261L35.253 27.0755C35.253 27.0755 35.22 26.798 35.175 26.474C35.13 26.149 35.078 25.7995 35.019 25.5595L34.015 25.8105C34.043 25.923 34.106 26.3025 34.15 26.6165C34.174 26.7935 34.18 26.8365 34.1925 26.9455C33.9805 27.2235 33.7775 27.407 33.5695 27.4605C33.3265 27.522 33.047 27.4885 32.769 27.3945C32.299 27.2355 32.015 26.984 31.899 26.889L31.89 26.6945C32.1295 26.5395 32.454 26.3245 32.7815 26.0845C33.0905 25.857 33.3965 25.613 33.639 25.3695C33.759 25.248 33.867 25.13 33.954 24.9805C34.0425 24.8305 34.1475 24.602 34.0365 24.3145C33.988 24.1895 33.9305 23.8265 33.8205 23.4695C33.7655 23.2915 33.6995 23.1025 33.548 22.92C33.3965 22.738 33.118 22.583 32.834 22.583C32.6755 22.583 32.469 22.523 32.211 22.436C31.9525 22.349 31.6425 22.2325 31.263 22.2325ZM31.263 23.267C31.4155 23.267 31.618 23.326 31.878 23.4135C32.117 23.4945 32.4175 23.5835 32.76 23.6C32.7715 23.6175 32.8025 23.675 32.834 23.7775C32.8895 23.9575 32.946 24.2325 33.024 24.5C32.999 24.534 32.969 24.5765 32.9035 24.6425C32.7325 24.8145 32.4535 25.038 32.167 25.248C31.727 25.5715 31.452 25.74 31.263 25.8585C31.0755 25.7405 30.795 25.5735 30.3535 25.2485C30.067 25.0385 29.7935 24.8145 29.6225 24.6425C29.5565 24.5765 29.5275 24.534 29.5025 24.5C29.5795 24.2325 29.6365 23.958 29.6915 23.7775C29.7091 23.7155 29.7341 23.6559 29.766 23.6C30.108 23.584 30.4045 23.4945 30.644 23.4135C30.903 23.326 31.111 23.267 31.263 23.267ZM14.792 35.1845C14.092 35.2145 13.437 35.5565 13.009 36.1115L12.694 36.5225L13.511 37.1545L13.8275 36.7425C13.9501 36.5891 14.1036 36.4632 14.278 36.373C14.4525 36.2828 14.6439 36.2304 14.84 36.219C15.0248 36.2139 15.2088 36.2457 15.3812 36.3126C15.5536 36.3794 15.711 36.4801 15.844 36.6085L16.212 36.972L16.9385 36.2365L16.5705 35.873C16.3368 35.6428 16.0585 35.4629 15.7526 35.3445C15.4467 35.2261 15.1197 35.1716 14.792 35.1845ZM25.711 35.1845C25.3837 35.1712 25.0572 35.2255 24.7518 35.344C24.4464 35.4624 24.1687 35.6425 23.936 35.873L23.5685 36.2365L24.295 36.9715L24.6635 36.6085C24.7964 36.48 24.9536 36.3794 25.1259 36.3124C25.2983 36.2454 25.4822 36.2135 25.667 36.2185C25.8632 36.2299 26.0547 36.2824 26.2293 36.3727C26.4038 36.4629 26.5574 36.589 26.68 36.7425L26.9915 37.1545L27.8135 36.5225L27.4975 36.1115C27.2848 35.8366 27.0148 35.6113 26.7063 35.4512C26.3978 35.2911 26.0582 35.2001 25.711 35.1845ZM48.513 37.1405H48.512C47.8585 37.1484 47.2335 37.4093 46.7685 37.8685L46.4005 38.2315L47.128 38.9665L47.495 38.6035C47.6407 38.463 47.8132 38.3531 48.0021 38.2804C48.191 38.2076 48.3926 38.1735 48.595 38.18C49.015 38.1975 49.4455 38.4185 49.702 38.751L50.0185 39.162L50.837 38.5305L50.5205 38.1195C50.2972 37.8299 50.0134 37.5926 49.6888 37.4242C49.3642 37.2558 49.0068 37.1603 48.6415 37.1445C48.5992 37.1425 48.5563 37.1412 48.513 37.1405ZM37.101 37.1405C37.0577 37.1405 37.0143 37.142 36.971 37.145C36.6052 37.1609 36.2472 37.2563 35.922 37.4246C35.5968 37.5929 35.3122 37.83 35.088 38.1195L34.773 38.5305L35.595 39.1625L35.91 38.751C36.0434 38.5834 36.2107 38.4459 36.401 38.3475C36.5912 38.2491 36.8001 38.192 37.014 38.18C37.2168 38.1736 37.4189 38.2078 37.6084 38.2805C37.7979 38.3532 37.971 38.463 38.1175 38.6035L38.4855 38.967L39.213 38.232L38.845 37.8685C38.3797 37.4094 37.7546 37.1481 37.101 37.1405ZM14.9 38.2795C14.4617 38.2796 14.0414 38.4579 13.7315 38.7752C13.4215 39.0925 13.2472 39.5227 13.247 39.9715C13.2465 40.1941 13.289 40.4146 13.3718 40.6203C13.4547 40.8261 13.5764 41.0131 13.7299 41.1707C13.8834 41.3283 14.0658 41.4533 14.2666 41.5386C14.4674 41.624 14.6826 41.6679 14.9 41.668C15.1174 41.6679 15.3326 41.624 15.5334 41.5386C15.7342 41.4533 15.9165 41.3283 16.0701 41.1707C16.2236 41.0131 16.3453 40.8261 16.4282 40.6203C16.511 40.4146 16.5534 40.1941 16.553 39.9715C16.5527 39.5227 16.3785 39.0925 16.0685 38.7752C15.7586 38.4579 15.3383 38.2796 14.9 38.2795ZM25.606 38.2795C25.3886 38.279 25.1732 38.3223 24.9722 38.4071C24.7712 38.4919 24.5885 38.6164 24.4345 38.7736C24.2806 38.9307 24.1584 39.1174 24.075 39.323C23.9916 39.5285 23.9486 39.7489 23.9485 39.9715C23.948 40.1945 23.9906 40.4153 24.0737 40.6214C24.1569 40.8275 24.279 41.0147 24.433 41.1723C24.587 41.33 24.7699 41.4549 24.9712 41.54C25.1725 41.625 25.3882 41.6685 25.606 41.668C25.8234 41.6679 26.0386 41.624 26.2394 41.5386C26.4402 41.4533 26.6225 41.3283 26.7761 41.1707C26.9296 41.0131 27.0513 40.8261 27.1342 40.6203C27.217 40.4146 27.2594 40.1941 27.259 39.9715C27.2587 39.5227 27.0845 39.0925 26.7745 38.7752C26.4646 38.4579 26.0443 38.2796 25.606 38.2795ZM37.0825 40.4175C36.6144 40.4183 36.1657 40.6092 35.8348 40.9482C35.5039 41.2872 35.3179 41.7467 35.3175 42.226C35.3177 42.7053 35.5037 43.165 35.8346 43.5041C36.1655 43.8433 36.6143 44.0342 37.0825 44.035C37.3148 44.0353 37.5448 43.9887 37.7595 43.8979C37.9741 43.8071 38.1692 43.6739 38.3336 43.5059C38.498 43.3379 38.6284 43.1384 38.7174 42.9188C38.8065 42.6992 38.8524 42.4638 38.8525 42.226C38.8523 41.9883 38.8064 41.7529 38.7173 41.5333C38.6282 41.3138 38.4978 41.1143 38.3334 40.9464C38.1691 40.7784 37.974 40.6453 37.7593 40.5545C37.5447 40.4638 37.3147 40.4172 37.0825 40.4175ZM48.529 40.4175C48.2968 40.4172 48.0668 40.4638 47.8521 40.5545C47.6375 40.6453 47.4424 40.7784 47.278 40.9464C47.1137 41.1143 46.9832 41.3138 46.8942 41.5333C46.8051 41.7529 46.7592 41.9883 46.759 42.226C46.7591 42.4638 46.805 42.6992 46.894 42.9188C46.9831 43.1384 47.1135 43.3379 47.2779 43.5059C47.4423 43.6739 47.6373 43.8071 47.852 43.8979C48.0667 43.9887 48.2967 44.0353 48.529 44.035C48.9974 44.0345 49.4464 43.8437 49.7775 43.5045C50.1086 43.1653 50.2947 42.7055 50.295 42.226C50.2946 41.7466 50.1084 41.2869 49.7773 40.9478C49.4463 40.6088 48.9973 40.418 48.529 40.4175ZM20.3485 40.5385C20.0655 40.5385 19.8465 40.622 19.6815 40.6775C19.5165 40.7325 19.406 40.7595 19.3445 40.7595C19.1095 40.7595 18.866 40.8975 18.743 41.0455C18.62 41.1935 18.5695 41.3355 18.531 41.4605C18.453 41.712 18.4165 41.943 18.401 41.984C18.298 42.2505 18.396 42.454 18.466 42.573C18.485 42.606 18.506 42.6305 18.526 42.659H20.106C20.0281 42.6076 19.9516 42.5543 19.8765 42.499C19.6975 42.367 19.523 42.2285 19.4265 42.1315V42.1265C19.458 41.9965 19.495 41.8405 19.5175 41.767C19.52 41.759 19.5195 41.766 19.5225 41.7595C19.7055 41.7325 19.889 41.696 20.0105 41.6545C20.1765 41.599 20.2915 41.573 20.3485 41.573C20.4048 41.5723 20.5158 41.5997 20.6815 41.655C20.803 41.696 20.988 41.7325 21.1705 41.7595C21.173 41.766 21.172 41.7595 21.1745 41.767C21.1975 41.8405 21.2385 41.9955 21.2695 42.127L21.2655 42.1315C21.169 42.2285 20.9955 42.367 20.816 42.4985C20.7419 42.5531 20.6669 42.6065 20.591 42.6585H22.171C22.191 42.631 22.212 42.6055 22.2305 42.573C22.3005 42.454 22.399 42.2505 22.2955 41.984C22.2805 41.9435 22.239 41.712 22.1605 41.4605C22.1204 41.3087 22.0483 41.1671 21.949 41.0455C21.826 40.8975 21.5875 40.7595 21.3525 40.7595C21.2915 40.7598 21.1788 40.7325 21.0145 40.6775C20.8495 40.622 20.6315 40.5385 20.3485 40.5385ZM42.908 42.867C42.613 42.867 42.383 42.955 42.2065 43.0145C42.03 43.074 41.908 43.1045 41.8345 43.1045C41.5935 43.1045 41.3465 43.242 41.2195 43.3945C41.0935 43.546 41.04 43.6955 40.9995 43.8275C40.9175 44.0915 40.8765 44.339 40.857 44.39C40.7525 44.66 40.854 44.865 40.9255 44.987C40.9975 45.11 41.0805 45.197 41.1685 45.286C41.345 45.4625 41.559 45.63 41.774 45.7875C41.9515 45.9175 42.1245 46.0355 42.272 46.1345C42.1745 46.212 42.045 46.318 41.808 46.398C41.638 46.4555 41.48 46.469 41.354 46.437C41.262 46.4135 41.1585 46.3065 41.0555 46.191C41.0635 46.1275 41.0655 46.1235 41.077 46.0435C41.107 45.831 41.1495 45.5675 41.1635 45.5115L40.16 45.2605C40.114 45.4445 40.0825 45.6775 40.0515 45.9C40.0205 46.1235 39.9995 46.316 39.9995 46.316L39.978 46.4975L40.078 46.654C40.3445 47.073 40.7165 47.3435 41.098 47.441C41.4805 47.5385 41.841 47.4765 42.1375 47.3765C42.4086 47.2815 42.665 47.1487 42.899 46.982C43.078 47.108 43.3425 47.2685 43.661 47.377C43.9575 47.477 44.317 47.5385 44.699 47.441C45.0815 47.3435 45.4535 47.073 45.7205 46.654L45.8205 46.4975L45.7985 46.316C45.7985 46.316 45.773 46.124 45.742 45.901C45.7115 45.678 45.6805 45.4445 45.6345 45.2605L44.6305 45.5115C44.6445 45.5675 44.692 45.8315 44.7215 46.0435C44.7315 46.1235 44.73 46.1275 44.738 46.191C44.6355 46.306 44.5355 46.4135 44.444 46.437C44.318 46.469 44.159 46.4555 43.989 46.398C43.759 46.32 43.6325 46.216 43.535 46.138C43.685 46.039 43.86 45.92 44.0415 45.788C44.2565 45.63 44.4705 45.463 44.647 45.286C44.7403 45.1972 44.8218 45.0967 44.8895 44.987C44.9615 44.8645 45.0585 44.6595 44.9545 44.39C44.9345 44.339 44.893 44.0915 44.811 43.8275C44.771 43.6955 44.721 43.546 44.5955 43.394C44.4685 43.242 44.222 43.104 43.981 43.104C43.908 43.104 43.786 43.074 43.609 43.014C43.4325 42.954 43.203 42.867 42.908 42.867ZM42.908 43.901C42.976 43.9013 43.0987 43.9317 43.276 43.992C43.4525 44.0459 43.6336 44.0834 43.817 44.104C43.8235 44.118 43.817 44.109 43.8245 44.134C43.8515 44.2215 43.895 44.3895 43.933 44.5415L43.9155 44.559C43.7634 44.7026 43.6015 44.8354 43.431 44.9565C43.1785 45.1415 43.059 45.2115 42.908 45.307C42.758 45.212 42.638 45.1425 42.3845 44.957C42.2136 44.8358 42.0514 44.7028 41.899 44.559C41.888 44.5475 41.892 44.547 41.8825 44.5365C41.9195 44.3875 41.9595 44.2205 41.986 44.1345C41.994 44.108 41.992 44.118 41.9985 44.1045C42.1805 44.0835 42.3603 44.0458 42.5355 43.992C42.713 43.932 42.839 43.901 42.9075 43.901H42.908Z" fill="black"/>
<path d="M22.7454 17.8875C22.3362 17.8875 21.9312 17.9702 21.5548 18.1305C21.1783 18.2908 20.838 18.5255 20.5544 18.8205C20.1983 19.1852 19.9351 19.6302 19.7869 20.118C19.6784 20.4737 19.6327 20.8456 19.6519 21.217C19.6763 21.7038 19.8115 22.1786 20.0473 22.6052C20.283 23.0318 20.6132 23.3989 21.0124 23.6785C21.2198 23.822 21.444 23.9398 21.6799 24.029C22.4166 24.3069 23.2325 24.2872 23.9549 23.974C24.2323 23.8538 24.4903 23.6931 24.7204 23.497C24.9906 23.2692 25.2204 22.9976 25.4004 22.6935C25.7792 22.0566 25.9251 21.308 25.8134 20.5755C25.7518 20.1662 25.6114 19.7728 25.3999 19.417C25.1673 19.0267 24.8542 18.6904 24.4814 18.4305C24.2738 18.2871 24.0495 18.1695 23.8134 18.0805C23.4724 17.9519 23.1109 17.8865 22.7464 17.8875H22.7454ZM39.4804 17.8875C39.1163 17.8882 38.7553 17.9541 38.4144 18.082C38.131 18.1877 37.8651 18.3357 37.6259 18.521C37.3462 18.7355 37.1046 18.9955 36.9109 19.29C36.4441 19.9968 36.2765 20.8598 36.4449 21.69C36.5665 22.2934 36.8596 22.8489 37.2889 23.29C37.4995 23.5059 37.7399 23.6904 38.0029 23.838C38.2695 23.9867 38.5568 24.0946 38.8554 24.158C39.1651 24.2238 39.4832 24.2402 39.7979 24.2065C40.4089 24.1427 40.9861 23.8948 41.4529 23.4955C41.7616 23.2347 42.0173 22.9169 42.2059 22.5595C42.5033 21.9997 42.6277 21.3641 42.5634 20.7335C42.5171 20.2689 42.3696 19.8201 42.1314 19.4185C41.8729 18.9849 41.5155 18.6186 41.0884 18.3495C40.8301 18.189 40.5496 18.0673 40.2559 17.9885C40.0031 17.9212 39.7421 17.8872 39.4804 17.8875ZM22.7454 18.9175H22.7464C22.8519 18.9172 22.9572 18.9252 23.0614 18.9415C23.2972 18.9778 23.5247 19.0561 23.7329 19.1725C23.9094 19.2703 24.0705 19.3936 24.2109 19.5385C24.402 19.7337 24.5532 19.9644 24.6559 20.2175C24.7512 20.4485 24.8055 20.6943 24.8164 20.944C24.8279 21.198 24.7971 21.4521 24.7254 21.696C24.6462 21.9598 24.517 22.2059 24.3449 22.421C24.176 22.6312 23.9683 22.8069 23.7329 22.9385C23.3368 23.1578 22.8788 23.2388 22.4314 23.1685C21.9253 23.0896 21.4677 22.8222 21.1504 22.42C20.9785 22.2049 20.8495 21.9588 20.7704 21.695C20.7081 21.4874 20.6767 21.2717 20.6774 21.055C20.6776 20.8383 20.7091 20.6227 20.7709 20.415C20.8501 20.1514 20.9791 19.9054 21.1509 19.6905C21.3193 19.4807 21.5264 19.3052 21.7609 19.1735C22.031 19.0241 22.3313 18.9376 22.6394 18.9205C22.6744 18.9188 22.7098 18.9175 22.7454 18.9175ZM39.4804 18.9175C39.6891 18.9178 39.8965 18.95 40.0954 19.013C40.3526 19.0943 40.5907 19.2268 40.7954 19.4025C41.0025 19.5776 41.1736 19.7912 41.2994 20.0315C41.4312 20.281 41.5126 20.554 41.5389 20.835C41.5807 21.2643 41.4973 21.6965 41.2989 22.0795C41.1722 22.319 41.0014 22.5324 40.7954 22.7085C40.6415 22.8384 40.4698 22.9455 40.2854 23.0265C40.0316 23.137 39.7578 23.1941 39.4809 23.1941C39.2041 23.1941 38.9302 23.137 38.6764 23.0265C38.4295 22.9193 38.2061 22.7645 38.0189 22.571C37.8282 22.3757 37.6774 22.145 37.5749 21.892C37.4798 21.6611 37.4257 21.4154 37.4149 21.166C37.4059 20.9834 37.4192 20.8004 37.4544 20.621C37.5089 20.3483 37.6146 20.0883 37.7659 19.855C37.9145 19.63 38.1042 19.4349 38.3249 19.28C38.5194 19.1453 38.7358 19.0454 38.9644 18.9845C39.1328 18.9398 39.3062 18.9173 39.4804 18.9175ZM14.8439 37.7635C14.8253 37.7626 14.8066 37.7628 14.7879 37.764C13.6404 37.824 12.7324 38.801 12.7324 39.971C12.7324 41.179 13.7009 42.1825 14.9004 42.1825C16.0999 42.1825 17.0724 41.179 17.0724 39.971C17.0724 38.763 16.0999 37.764 14.9004 37.764L14.8439 37.7635ZM25.5504 37.7635C25.5316 37.7626 25.5127 37.7628 25.4939 37.764C24.3464 37.824 23.4339 38.801 23.4339 39.971C23.4339 41.179 24.4069 42.1825 25.6064 42.1825C26.8059 42.1825 27.7744 41.179 27.7744 39.971C27.7744 38.763 26.8059 37.764 25.6064 37.764L25.5504 37.7635ZM14.9004 38.7985C15.5274 38.7985 16.0379 39.309 16.0379 39.971C16.0379 40.633 15.5274 41.148 14.9004 41.148C14.2734 41.148 13.7659 40.633 13.7659 39.971C13.7659 39.309 14.2734 38.7985 14.9004 38.7985ZM25.6064 38.7985C26.2334 38.7985 26.7404 39.309 26.7404 39.971C26.7404 40.633 26.2334 41.148 25.6064 41.148C24.9794 41.148 24.4684 40.633 24.4684 39.971C24.4684 39.309 24.9794 38.7985 25.6064 38.7985ZM37.0829 39.8975C35.8204 39.8975 34.7979 40.953 34.7979 42.2255C34.7979 43.4985 35.8204 44.554 37.0829 44.554C38.3454 44.554 39.3679 43.499 39.3679 42.2255C39.3679 40.953 38.3459 39.8975 37.0829 39.8975ZM48.5294 39.8975C47.2669 39.8975 46.2444 40.953 46.2444 42.2255C46.2444 43.4985 47.2669 44.554 48.5294 44.554C49.7919 44.554 50.8144 43.499 50.8144 42.2255C50.8144 40.953 49.7924 39.8975 48.5294 39.8975ZM37.0509 40.9315L37.0834 40.932C37.7734 40.932 38.3334 41.499 38.3334 42.2255C38.3334 42.952 37.7734 43.5195 37.0834 43.5195C36.3934 43.5195 35.8324 42.9525 35.8324 42.2255C35.8324 41.5215 36.3574 40.9655 37.0184 40.932L37.0509 40.9315ZM48.4969 40.9315L48.5299 40.932C49.2199 40.932 49.7799 41.499 49.7799 42.2255C49.7799 42.952 49.2199 43.5195 48.5299 43.5195C47.8399 43.5195 47.2789 42.9525 47.2789 42.2255C47.2789 41.5215 47.8039 40.9655 48.4649 40.932L48.4969 40.9315Z" fill="#892CA0"/>
<path d="M21.8851 18.9865C21.548 18.9862 21.2247 19.1251 20.986 19.3726C20.7474 19.6201 20.6131 19.956 20.6126 20.3065C20.6122 20.4804 20.6449 20.6528 20.7087 20.8136C20.7724 20.9744 20.8661 21.1205 20.9843 21.2436C21.1026 21.3667 21.243 21.4643 21.3975 21.5309C21.5521 21.5974 21.7178 21.6316 21.8851 21.6315C22.0524 21.6316 22.2181 21.5974 22.3727 21.5309C22.5272 21.4643 22.6676 21.3667 22.7859 21.2436C22.9041 21.1205 22.9978 20.9744 23.0615 20.8136C23.1253 20.6528 23.158 20.4804 23.1576 20.3065C23.1571 19.956 23.0228 19.6201 22.7842 19.3726C22.5455 19.1251 22.2222 18.9862 21.8851 18.9865ZM38.6116 18.9865C38.2745 18.9862 37.9512 19.1251 37.7125 19.3726C37.4739 19.6201 37.3396 19.956 37.3391 20.3065C37.3387 20.4804 37.3714 20.6528 37.4352 20.8136C37.4989 20.9744 37.5926 21.1205 37.7108 21.2436C37.8291 21.3667 37.9695 21.4643 38.124 21.5309C38.2786 21.5974 38.4443 21.6316 38.6116 21.6315C38.7788 21.6315 38.9444 21.5972 39.0988 21.5306C39.2533 21.464 39.3936 21.3663 39.5117 21.2432C39.6298 21.1202 39.7234 20.9741 39.7871 20.8133C39.8509 20.6526 39.8835 20.4804 39.8831 20.3065C39.8826 19.9562 39.7484 19.6205 39.51 19.373C39.2716 19.1255 38.9485 18.9865 38.6116 18.9865ZM14.3501 38.6515C14.1346 38.6516 13.9279 38.7406 13.7755 38.8987C13.6232 39.0569 13.5376 39.2714 13.5376 39.495C13.5375 39.6059 13.5585 39.7156 13.5994 39.8181C13.6403 39.9205 13.7002 40.0136 13.7757 40.0919C13.8513 40.1703 13.941 40.2325 14.0397 40.2749C14.1384 40.3173 14.2442 40.3391 14.3511 40.339C14.4579 40.3391 14.5638 40.3173 14.6625 40.2749C14.7612 40.2325 14.8509 40.1703 14.9265 40.0919C15.002 40.0136 15.0619 39.9205 15.1028 39.8181C15.1437 39.7156 15.1647 39.6059 15.1646 39.495C15.1646 39.3842 15.1436 39.2745 15.1027 39.1721C15.0618 39.0697 15.0018 38.9767 14.9263 38.8984C14.8508 38.82 14.7611 38.7579 14.6624 38.7156C14.5637 38.6732 14.4579 38.6514 14.3511 38.6515H14.3501ZM25.1601 38.7725C25.0533 38.7725 24.9475 38.7943 24.8489 38.8368C24.7502 38.8792 24.6605 38.9414 24.585 39.0197C24.5095 39.0981 24.4497 39.1912 24.4088 39.2935C24.368 39.3959 24.347 39.5057 24.3471 39.6165C24.3471 39.7273 24.3681 39.837 24.409 39.9394C24.4499 40.0418 24.5098 40.1348 24.5854 40.2131C24.6609 40.2915 24.7506 40.3536 24.8493 40.3959C24.948 40.4383 25.0538 40.4601 25.1606 40.46C25.2675 40.4602 25.3734 40.4385 25.4722 40.3962C25.571 40.3539 25.6608 40.2918 25.7364 40.2135C25.8121 40.1351 25.8721 40.0421 25.9131 39.9396C25.954 39.8372 25.9751 39.7274 25.9751 39.6165C25.9752 39.5055 25.9541 39.3956 25.9132 39.2931C25.8722 39.1905 25.8122 39.0974 25.7364 39.019C25.6607 38.9406 25.5708 38.8785 25.4719 38.8362C25.373 38.7939 25.2671 38.7722 25.1601 38.7725ZM36.4951 40.8155C36.2648 40.8154 36.0439 40.91 35.8808 41.0786C35.7177 41.2472 35.6257 41.4761 35.6251 41.715C35.6248 41.8337 35.6472 41.9512 35.6908 42.0609C35.7344 42.1706 35.7984 42.2703 35.8793 42.3543C35.9601 42.4383 36.0561 42.5049 36.1618 42.5503C36.2674 42.5957 36.3807 42.6191 36.4951 42.619C36.6095 42.6191 36.7228 42.5957 36.8284 42.5503C36.9341 42.5049 37.0301 42.4383 37.1109 42.3543C37.1918 42.2703 37.2558 42.1706 37.2994 42.0609C37.343 41.9512 37.3654 41.8337 37.3651 41.715C37.3645 41.4761 37.2725 41.2472 37.1094 41.0786C36.9463 40.91 36.7254 40.8154 36.4951 40.8155ZM48.1186 40.9315C48.0041 40.9314 47.8908 40.9548 47.785 41.0003C47.6793 41.0458 47.5833 41.1125 47.5024 41.1966C47.4216 41.2806 47.3576 41.3805 47.314 41.4903C47.2704 41.6001 47.2482 41.7177 47.2486 41.8365C47.2491 42.0755 47.341 42.3045 47.5041 42.4732C47.6672 42.6419 47.8882 42.7366 48.1186 42.7365C48.349 42.7366 48.57 42.6419 48.7331 42.4732C48.8962 42.3045 48.9881 42.0755 48.9886 41.8365C48.989 41.7177 48.9668 41.6001 48.9232 41.4903C48.8796 41.3805 48.8156 41.2806 48.7348 41.1966C48.6539 41.1125 48.5579 41.0458 48.4522 41.0003C48.3464 40.9548 48.2331 40.9314 48.1186 40.9315Z" fill="white"/>
</g>
<defs>
<clipPath id="clip0_150_19">
<rect width="64" height="64" fill="white"/>
</clipPath>
</defs>
</svg>
