<svg width="63" height="64" viewBox="0 0 63 64" fill="none" xmlns="http://www.w3.org/2000/svg">
<path d="M61.8247 38.3239C61.4526 37.1968 60.4778 36.4119 59.2172 36.2235C58.6228 36.1348 57.9421 36.1726 57.1365 36.3387C55.7324 36.6284 54.6907 36.7387 53.9304 36.76C56.8 31.9151 59.1333 26.3903 60.4766 21.1896C62.6487 12.7801 61.488 8.94908 60.1316 7.21623C56.5421 2.62957 51.305 0.165568 44.9869 0.0901738C41.6165 0.0489616 38.6577 0.714416 37.1142 1.19296C35.6771 0.939386 34.1319 0.79781 32.5105 0.771628C29.4713 0.723144 26.7859 1.38569 24.4914 2.74739C23.2211 2.31781 21.1823 1.71223 18.8279 1.32581C13.2904 0.416719 8.82739 1.12508 5.5629 3.43126C1.60993 6.22351 -0.222552 11.0749 0.116357 17.8507C0.223993 20.0019 1.42739 26.5474 3.32218 32.7549C4.41115 36.3229 5.57236 39.2858 6.77357 41.5622C8.47708 44.7901 10.2999 46.6909 12.3462 47.3736C13.4931 47.7556 15.577 48.0233 17.7687 46.1978C18.0465 46.5343 18.4172 46.8686 18.9091 47.1791C19.5338 47.5731 20.2977 47.895 21.0606 48.0858C23.8099 48.7731 26.3852 48.6012 28.5823 47.6378C28.5959 48.0286 28.6063 48.4019 28.615 48.7244C28.6296 49.2473 28.6441 49.76 28.6633 50.2395C28.7934 53.4817 29.0141 56.0027 29.6676 57.7665C29.7035 57.8635 29.7518 58.0114 29.8027 58.1682C30.1287 59.1665 30.6739 60.8378 32.0611 62.1467C33.4974 63.5025 35.2349 63.9183 36.8262 63.9183C37.6242 63.9183 38.3857 63.8136 39.0536 63.6705C41.4342 63.1602 44.1379 62.383 46.0938 59.5981C47.943 56.9653 48.8419 53 49.0046 46.752C49.0256 46.5752 49.0453 46.4065 49.0638 46.2458L49.1025 45.9156L49.5382 45.9539L49.6504 45.9614C52.0751 46.072 55.04 45.5578 56.8608 44.712C58.2996 44.0444 62.9103 41.6102 61.8247 38.3239Z" fill="black"/>
<path d="M57.6788 38.9629C50.4691 40.4502 49.9734 38.0092 49.9734 38.0092C57.5855 26.7139 60.7678 12.3762 58.0218 8.86716C50.53 -0.704964 37.5615 3.82207 37.345 3.9394L37.2754 3.95201C35.8509 3.65625 34.257 3.48025 32.4652 3.45091C29.2032 3.39758 26.7285 4.30619 24.8507 5.73019C24.8507 5.73019 1.71615 -3.80048 2.79227 17.7166C3.02112 22.2941 9.35324 52.3525 16.9057 43.2735C19.6662 39.9535 22.3336 37.1464 22.3336 37.1464C23.6582 38.0264 25.2442 38.4754 26.9067 38.3142L27.0359 38.2046C26.9957 38.6167 27.0141 39.0199 27.0875 39.4972C25.1418 41.671 25.7137 42.0526 21.8243 42.8533C17.8885 43.6645 20.2005 45.1084 21.7101 45.4861C23.5402 45.9435 27.7738 46.5918 30.6345 42.5872L30.5205 43.0441C31.2827 43.6548 31.818 47.0158 31.7283 50.0628C31.6386 53.1096 31.5787 55.2015 32.1792 56.8354C32.7802 58.4693 33.3787 62.1457 38.4919 61.0502C42.7641 60.1346 44.9782 57.7619 45.2863 53.8041C45.5048 50.9906 45.9995 51.4066 46.0306 48.8909L46.4274 47.7001C46.8849 43.8861 46.5002 42.6555 49.1322 43.2279L49.7722 43.2841C51.7091 43.3721 54.2449 42.9724 55.7331 42.2807C58.9375 40.7937 60.8381 38.3106 57.6783 38.9629H57.6788Z" fill="#336791"/>
<path d="M26.205 19.7636C25.5553 19.6732 24.9669 19.7568 24.6692 19.9823C24.5019 20.1091 24.45 20.256 24.436 20.3571C24.3987 20.625 24.5863 20.9212 24.7017 21.0739C25.028 21.5064 25.5046 21.8036 25.9763 21.8691C26.0447 21.8786 26.1128 21.8833 26.1805 21.8831C26.9671 21.8831 27.6825 21.2705 27.7456 20.8184C27.8243 20.2521 27.0023 19.8744 26.205 19.7636ZM47.7283 19.7816C47.6663 19.3377 46.8765 19.2111 46.1269 19.3154C45.3783 19.4196 44.6525 19.7576 44.7131 20.2024C44.7616 20.5483 45.3863 21.1389 46.1257 21.1389C46.1882 21.1389 46.2513 21.1345 46.3148 21.1258C46.8083 21.0574 47.1705 20.744 47.3427 20.5634C47.6045 20.288 47.7562 19.9811 47.7283 19.7816Z" fill="white"/>
<path d="M60.0779 38.7939C59.803 37.9627 58.9181 37.6953 57.4481 37.9988C53.0832 38.8996 51.5201 38.2756 51.0069 37.8977C54.3996 32.7292 57.1906 26.4815 58.6963 20.6524C59.4095 17.8912 59.8035 15.3268 59.8357 13.2366C59.8714 10.9426 59.4806 9.25674 58.6748 8.22692C55.4258 4.07541 50.6573 1.8485 44.8852 1.7874C40.9169 1.7428 37.5642 2.75831 36.9143 3.04389C35.5455 2.70353 34.0534 2.49456 32.4289 2.46789C29.45 2.41965 26.875 3.13286 24.7431 4.58668C23.8171 4.24195 21.4238 3.42037 18.4971 2.94886C13.4372 2.13431 9.41633 2.75153 6.54699 4.78425C3.12324 7.20995 1.54263 11.5459 1.84881 17.6715C1.95184 19.7324 3.12614 26.0723 4.97924 32.1438C7.41851 40.135 10.0701 44.6589 12.86 45.5896C13.1865 45.6984 13.563 45.7746 13.9783 45.7746C14.996 45.7746 16.2437 45.3159 17.5419 43.7552C19.1253 41.8557 20.7633 40.0023 22.4537 38.1973C23.5504 38.7859 24.7552 39.1147 25.9875 39.1476C25.9901 39.18 25.9929 39.2121 25.996 39.2441C25.7839 39.4971 25.5762 39.7537 25.3729 40.0138C24.5191 41.0977 24.3414 41.3234 21.5931 41.8892C20.8112 42.0507 18.7349 42.4786 18.7043 43.9341C18.6714 45.5244 21.1589 46.1923 21.4423 46.263C22.4299 46.5103 23.3814 46.6323 24.2888 46.6323C26.4956 46.6323 28.4377 45.9069 29.9897 44.5035C29.9419 50.1729 30.1783 55.7593 30.859 57.4613C31.4166 58.8548 32.7785 62.2601 37.0806 62.2599C37.7118 62.2599 38.4066 62.1864 39.171 62.0226C43.6609 61.0601 45.6108 59.0756 46.3649 54.7006C46.7686 52.3624 47.4612 46.7792 47.787 43.7843C48.4745 43.9988 49.3596 44.097 50.3164 44.0967C52.3121 44.0967 54.6149 43.6727 56.059 43.0024C57.6813 42.249 60.6088 40.4003 60.0779 38.7939ZM49.3855 18.5564C49.3708 19.4405 49.2491 20.2432 49.1201 21.081C48.9812 21.9821 48.8377 22.9137 48.8015 24.0446C48.7659 25.1452 48.9034 26.2895 49.0362 27.3961C49.3048 29.6313 49.5804 31.9324 48.5135 34.2029C48.3366 33.8888 48.1787 33.5642 48.0408 33.231C47.9082 32.9096 47.6202 32.3932 47.2214 31.6786C45.6701 28.8965 42.0374 22.3816 43.8971 19.7232C44.451 18.9319 45.8568 18.1183 49.3855 18.5564ZM45.1082 3.57771C50.2801 3.69189 54.3712 5.62668 57.2677 9.32801C59.4893 12.167 57.043 25.0851 49.9611 36.2296C49.8898 36.139 49.8182 36.0488 49.7463 35.9588L49.6566 35.8468C51.4866 32.8245 51.1288 29.8342 50.8103 27.183C50.6794 26.095 50.5557 25.0674 50.5872 24.1021C50.6197 23.079 50.755 22.2015 50.8859 21.353C51.0466 20.3074 51.2103 19.2255 51.1652 17.9501C51.1989 17.8163 51.2124 17.6582 51.1948 17.4706C51.0796 16.2475 49.6832 12.5872 46.8372 9.27419C45.2803 7.46207 43.01 5.43419 39.9101 4.06644C41.2435 3.79007 43.0668 3.53237 45.1082 3.57771ZM16.1681 42.6129C14.7378 44.3326 13.7501 44.0029 13.4253 43.8948C11.3089 43.1889 8.85318 38.7156 6.68808 31.6223C4.81463 25.4846 3.71984 19.3127 3.63305 17.5821C3.3596 12.1086 4.68639 8.29407 7.57681 6.24413C12.2808 2.90837 20.0146 4.90498 23.1223 5.91759C23.0777 5.96171 23.0311 6.00292 22.987 6.04777C17.8874 11.1978 18.0083 19.9969 18.0209 20.5348C18.0204 20.7423 18.0379 21.0361 18.0617 21.4403C18.1494 22.9203 18.3128 25.6747 17.8764 28.794C17.4711 31.6926 18.3647 34.5297 20.3276 36.578C20.529 36.7878 20.7407 36.9875 20.962 37.1763C20.0883 38.112 18.1894 40.1813 16.1681 42.6129ZM21.6175 35.3418C20.0355 33.6909 19.3169 31.3947 19.6459 29.0412C20.1065 25.7462 19.9366 22.8764 19.8452 21.3346C19.8323 21.1188 19.8209 20.9297 19.8144 20.7806C20.5594 20.12 24.0117 18.2703 26.4738 18.8344C27.5972 19.0916 28.2818 19.8567 28.5664 21.1726C30.0394 27.9855 28.7613 30.825 27.7344 33.1069C27.5228 33.577 27.3228 34.0213 27.1521 34.481L27.0197 34.8364C26.6847 35.7348 26.3729 36.5702 26.1797 37.3634C24.4978 37.3586 22.8617 36.64 21.6175 35.3416M21.8757 44.5295C21.3846 44.4068 20.9429 44.1937 20.6837 44.017C20.9002 43.9152 21.2854 43.7765 21.9535 43.6388C25.1868 42.9733 25.6861 42.5035 26.7766 41.119C27.0265 40.8015 27.3099 40.4417 27.7024 40.0034L27.7029 40.0029C28.2874 39.3484 28.5548 39.4594 29.0396 39.6606C29.4326 39.823 29.8154 40.3156 29.9705 40.8577C30.044 41.1137 30.1264 41.5995 29.8566 41.9777C27.5788 45.167 24.2595 45.1261 21.8757 44.5295ZM38.7967 60.2754C34.8413 61.1229 33.4408 59.1047 32.5179 56.7976C31.9223 55.3081 31.6294 48.5915 31.8372 41.1741C31.8398 41.0754 31.8258 40.9801 31.7986 40.8904C31.7744 40.7133 31.7374 40.5381 31.6881 40.3663C31.3792 39.287 30.6265 38.3843 29.7235 38.01C29.3647 37.8613 28.7063 37.5886 27.915 37.791C28.0837 37.0958 28.3763 36.3106 28.6937 35.4604L28.8268 35.1028C28.9766 34.6996 29.1647 34.282 29.3635 33.8398C30.4381 31.4524 31.9099 28.1823 30.3126 20.7949C29.7143 18.0279 27.7162 16.6766 24.6874 16.9906C22.8716 17.1784 21.2103 17.911 20.3817 18.3312C20.2035 18.4213 20.0406 18.5086 19.8883 18.5935C20.1196 15.8056 20.9933 10.5954 24.2617 7.29892C26.3196 5.22377 29.0602 4.1988 32.3994 4.25407C38.9788 4.36171 43.1979 7.73819 45.579 10.552C47.6309 12.9765 48.7419 15.4189 49.1853 16.7363C45.8508 16.3971 43.5829 17.0553 42.4333 18.6989C39.9322 22.2742 43.8015 29.2133 45.6612 32.5484C46.0023 33.1595 46.2966 33.6878 46.3892 33.9123C46.9948 35.3799 47.7788 36.3598 48.3511 37.0749C48.5266 37.2941 48.6968 37.5067 48.8263 37.6924C47.8163 37.9835 46.0023 38.6563 46.1676 42.0189C46.0343 43.7062 45.0861 51.6058 44.6044 54.3969C43.9686 58.0841 42.6117 59.4572 38.7967 60.2754ZM55.3068 41.3821C54.274 41.8613 52.5458 42.2209 50.9041 42.2982C49.0908 42.383 48.1676 42.095 47.9504 41.9178C47.8486 39.8223 48.6284 39.6034 49.4539 39.3716C49.5836 39.3353 49.7101 39.2996 49.8323 39.257C49.9081 39.3189 49.9915 39.38 50.0825 39.4403C51.54 40.4022 54.1395 40.506 57.8095 39.7484L57.8498 39.7404C57.3548 40.2032 56.5077 40.8243 55.3068 41.3821Z" fill="white"/>
</svg>
