<svg width="64" height="64" viewBox="0 0 64 64" fill="none" xmlns="http://www.w3.org/2000/svg">
<path d="M30.248 10.6C30.248 10.2709 30.3456 9.94918 30.5285 9.67553C30.7113 9.40189 30.9712 9.18861 31.2752 9.06266C31.5793 8.93672 31.9139 8.90377 32.2367 8.96797C32.5594 9.03218 32.8559 9.19066 33.0886 9.42338C33.3214 9.65609 33.4798 9.95259 33.544 10.2754C33.6083 10.5982 33.5753 10.9327 33.4494 11.2368C33.3234 11.5408 33.1101 11.8007 32.8365 11.9836C32.5628 12.1664 32.2411 12.264 31.912 12.264C31.6934 12.2645 31.4767 12.2218 31.2746 12.1384C31.0725 12.055 30.8888 11.9324 30.7342 11.7778C30.5796 11.6232 30.4571 11.4395 30.3736 11.2374C30.2902 11.0353 30.2475 10.8187 30.248 10.6ZM10.4 25.668C10.4 25.3389 10.4976 25.0172 10.6805 24.7435C10.8633 24.4699 11.1232 24.2566 11.4272 24.1307C11.7313 24.0047 12.0659 23.9718 12.3887 24.036C12.7114 24.1002 13.0079 24.2587 13.2406 24.4914C13.4734 24.7241 13.6318 25.0206 13.6961 25.3434C13.7603 25.6662 13.7273 26.0007 13.6014 26.3048C13.4754 26.6088 13.2621 26.8687 12.9885 27.0516C12.7148 27.2344 12.3931 27.332 12.064 27.332C11.8454 27.3325 11.6287 27.2898 11.4266 27.2064C11.2245 27.123 11.0408 27.0004 10.8862 26.8458C10.7316 26.6912 10.6091 26.5075 10.5256 26.3054C10.4422 26.1033 10.3995 25.8867 10.4 25.668ZM50.112 25.746C50.112 25.4169 50.2096 25.0952 50.3925 24.8215C50.5753 24.5479 50.8352 24.3346 51.1392 24.2087C51.4433 24.0827 51.7779 24.0498 52.1007 24.114C52.4234 24.1782 52.7199 24.3367 52.9526 24.5694C53.1854 24.8021 53.3438 25.0986 53.4081 25.4214C53.4723 25.7442 53.4393 26.0787 53.3134 26.3828C53.1874 26.6868 52.9741 26.9467 52.7005 27.1296C52.4268 27.3124 52.1051 27.41 51.776 27.41C51.5574 27.4105 51.3407 27.3678 51.1386 27.2844C50.9365 27.201 50.7528 27.0784 50.5982 26.9238C50.4436 26.7692 50.3211 26.5855 50.2376 26.3834C50.1542 26.1813 50.1115 25.9647 50.112 25.746ZM15.21 28.026C15.5769 27.8623 15.864 27.56 16.0087 27.1853C16.1533 26.8105 16.1437 26.3937 15.982 26.026L15.244 24.356H18.148V37.446H12.288C11.5674 34.9053 11.3419 32.2498 11.624 29.624L15.21 28.026ZM27.358 28.348V24.49H34.274C34.632 24.49 36.796 24.902 36.796 26.522C36.796 27.866 35.136 28.348 33.77 28.348H27.358ZM17.916 49.122C17.916 48.7929 18.0136 48.4712 18.1965 48.1975C18.3793 47.9239 18.6392 47.7106 18.9432 47.5847C19.2473 47.4587 19.5819 47.4258 19.9047 47.49C20.2274 47.5542 20.5239 47.7127 20.7566 47.9454C20.9894 48.1781 21.1478 48.4746 21.2121 48.7974C21.2763 49.1202 21.2433 49.4547 21.1174 49.7588C20.9914 50.0628 20.7781 50.3227 20.5045 50.5056C20.2309 50.6884 19.9091 50.786 19.58 50.786C19.3614 50.7865 19.1447 50.7438 18.9426 50.6604C18.7405 50.577 18.5568 50.4544 18.4022 50.2998C18.2476 50.1452 18.1251 49.9615 18.0416 49.7594C17.9582 49.5573 17.9155 49.3407 17.916 49.122ZM42.578 49.2C42.578 48.8709 42.6756 48.5492 42.8585 48.2755C43.0413 48.0019 43.3012 47.7886 43.6052 47.6627C43.9093 47.5367 44.2439 47.5038 44.5667 47.568C44.8894 47.6322 45.1859 47.7907 45.4186 48.0234C45.6514 48.2561 45.8098 48.5526 45.8741 48.8754C45.9383 49.1982 45.9053 49.5327 45.7794 49.8368C45.6534 50.1408 45.4401 50.4007 45.1665 50.5836C44.8928 50.7664 44.5711 50.864 44.242 50.864C44.0234 50.8645 43.8067 50.8218 43.6046 50.7384C43.4025 50.655 43.2188 50.5324 43.0642 50.3778C42.9096 50.2232 42.7871 50.0395 42.7036 49.8374C42.6202 49.6353 42.5775 49.4187 42.578 49.2ZM43.092 45.426C42.6985 45.3429 42.2881 45.4192 41.9507 45.6382C41.6134 45.8571 41.3765 46.2008 41.292 46.594L40.456 50.492C37.7692 51.7085 34.8515 52.331 31.9021 52.3168C28.9527 52.3027 26.0411 51.6523 23.366 50.41L22.532 46.512C22.4471 46.1192 22.2101 45.7759 21.8727 45.5574C21.5354 45.3389 21.1253 45.2629 20.732 45.346L17.29 46.086C16.6492 45.4284 16.0545 44.7274 15.51 43.988H32.258C32.448 43.988 32.574 43.954 32.574 43.788V37.856C32.574 37.684 32.448 37.656 32.258 37.656H27.358V33.894H32.656C33.4458 33.9019 34.207 34.1903 34.8038 34.7075C35.4005 35.2248 35.7941 35.9374 35.914 36.718C36.124 37.544 36.586 40.232 36.902 41.092C37.216 42.058 38.502 43.986 39.866 43.986H48.512C47.9335 44.7644 47.2992 45.4997 46.614 46.186L43.092 45.426ZM52.392 29.784C52.5093 30.9665 52.524 32.1569 52.436 33.342H50.334C50.124 33.342 50.038 33.48 50.038 33.686V34.652C50.038 36.924 48.756 37.42 47.638 37.546C46.568 37.666 45.382 37.098 45.238 36.444C45.1603 35.3114 44.8173 34.213 44.2367 33.2375C43.6562 32.2619 42.8544 31.4365 41.896 30.828C43.956 29.52 46.096 27.59 46.096 25.006C46.054 23.908 45.7376 22.8381 45.1758 21.8938C44.6141 20.9495 43.8248 20.1609 42.88 19.6C41.5624 18.7467 40.0469 18.2479 38.48 18.152H16.734C19.7404 14.7926 23.7704 12.5179 28.2 11.68L30.764 14.368C31.0419 14.6584 31.4235 14.8268 31.8253 14.8366C32.2271 14.8463 32.6164 14.6965 32.908 14.42L35.776 11.676C38.7002 12.2249 41.4698 13.4037 43.8926 15.1305C46.3153 16.8574 48.3332 19.0909 49.806 21.676L47.842 26.11C47.6803 26.4777 47.6707 26.8945 47.8154 27.2693C47.96 27.644 48.2472 27.9463 48.614 28.11L52.392 29.784ZM57.288 29.856L57.222 29.17L59.244 27.284C59.3207 27.2043 59.3808 27.1102 59.421 27.0071C59.4611 26.9041 59.4806 26.7942 59.4782 26.6836C59.4758 26.573 59.4515 26.464 59.4069 26.3629C59.3622 26.2617 59.2981 26.1703 59.218 26.094C59.1479 26.0257 59.0659 25.9707 58.976 25.932L56.4 24.966L56.2 24.298L57.812 22.058C57.8715 21.9647 57.912 21.8606 57.9311 21.7516C57.9502 21.6426 57.9476 21.5309 57.9235 21.423C57.8993 21.315 57.8541 21.2129 57.7903 21.1224C57.7266 21.032 57.6456 20.955 57.552 20.896C57.4707 20.8436 57.3806 20.8063 57.286 20.786L54.56 20.342L54.232 19.73L55.378 17.216C55.4593 17.0091 55.4553 16.7784 55.3668 16.5745C55.2784 16.3705 55.1126 16.21 54.906 16.128C54.8132 16.0906 54.7141 16.0709 54.614 16.07L51.848 16.166L51.4 15.638L52.036 12.944C52.0553 12.835 52.0528 12.7232 52.0286 12.6152C52.0045 12.5071 51.9593 12.4049 51.8956 12.3144C51.8318 12.2238 51.7508 12.1468 51.6572 12.0877C51.5635 12.0286 51.4592 11.9886 51.35 11.97C51.2548 11.9526 51.1572 11.9526 51.062 11.97L48.366 12.6L47.834 12.162L47.932 9.4C47.9297 9.28934 47.9055 9.18023 47.8609 9.07894C47.8162 8.97765 47.752 8.88619 47.6719 8.8098C47.5918 8.73341 47.4974 8.67361 47.3941 8.63383C47.2908 8.59405 47.1807 8.57508 47.07 8.578C46.9734 8.57948 46.8779 8.59846 46.788 8.634L44.274 9.78L43.662 9.452L43.218 6.726C43.1693 6.50933 43.0367 6.32078 42.8493 6.20159C42.6619 6.0824 42.4349 6.04228 42.218 6.09C42.1234 6.11028 42.0333 6.14755 41.952 6.2L39.71 7.812L39.044 7.612L38.078 5.026C38.0336 4.92473 37.9695 4.83324 37.8896 4.75678C37.8097 4.68032 37.7155 4.6204 37.6123 4.58044C37.5092 4.54049 37.3992 4.5213 37.2886 4.52397C37.1781 4.52664 37.0691 4.55112 36.968 4.596C36.879 4.63435 36.7977 4.68857 36.728 4.756L34.836 6.78L34.15 6.714L32.694 4.36C32.6166 4.24942 32.5136 4.15914 32.3938 4.09681C32.2741 4.03447 32.141 4.00193 32.006 4.00193C31.871 4.00193 31.738 4.03447 31.6182 4.09681C31.4985 4.15914 31.3955 4.24942 31.318 4.36L29.862 6.714L29.176 6.78L27.29 4.756C27.21 4.67963 27.1157 4.6198 27.0126 4.57996C26.9094 4.54011 26.7994 4.52104 26.6888 4.52383C26.5782 4.52661 26.4693 4.55121 26.3683 4.5962C26.2672 4.64119 26.1761 4.70569 26.1 4.786C26.0326 4.85565 25.9784 4.93697 25.94 5.026L24.966 7.6L24.3 7.8L22.06 6.2C21.9667 6.14052 21.8626 6.10005 21.7536 6.08092C21.6447 6.06179 21.533 6.06438 21.425 6.08854C21.317 6.1127 21.2149 6.15795 21.1245 6.2217C21.034 6.28545 20.9571 6.36643 20.898 6.46C20.8456 6.54129 20.8083 6.63141 20.788 6.726L20.344 9.452L19.732 9.78L17.216 8.634C17.1132 8.59391 17.0035 8.57447 16.8932 8.57679C16.7828 8.57912 16.674 8.60316 16.573 8.64755C16.4719 8.69194 16.3806 8.75581 16.3043 8.8355C16.2279 8.91519 16.168 9.00915 16.128 9.112C16.0918 9.20373 16.0728 9.30137 16.072 9.4L16.168 12.166L15.636 12.6L12.942 11.968C12.833 11.9488 12.7212 11.9513 12.6132 11.9754C12.5051 11.9995 12.4029 12.0447 12.3124 12.1085C12.2219 12.1722 12.1448 12.2532 12.0857 12.3469C12.0266 12.4405 11.9866 12.5449 11.968 12.654C11.9506 12.7492 11.9506 12.8468 11.968 12.942L12.6 15.638L12.164 16.168L9.40002 16.072C9.26502 16.0755 9.13283 16.1114 9.01456 16.1766C8.89629 16.2418 8.7954 16.3344 8.72035 16.4467C8.6453 16.559 8.59829 16.6876 8.58327 16.8218C8.56825 16.9561 8.58565 17.0919 8.63402 17.218L9.78002 19.732L9.45202 20.344L6.72602 20.788C6.50935 20.8368 6.3208 20.9693 6.20161 21.1567C6.08243 21.3441 6.0423 21.5711 6.09002 21.788C6.11031 21.8826 6.14758 21.9727 6.20002 22.054L7.81202 24.294L7.61202 24.962L5.02602 25.928C4.92476 25.9725 4.83327 26.0365 4.75681 26.1164C4.68035 26.1963 4.62042 26.2906 4.58047 26.3937C4.54051 26.4968 4.52132 26.6068 4.52399 26.7174C4.52666 26.828 4.55114 26.9369 4.59602 27.038C4.63476 27.1279 4.68967 27.2099 4.75802 27.28L6.78002 29.166L6.71402 29.852L4.36002 31.308C4.24944 31.3855 4.15916 31.4884 4.09683 31.6082C4.0345 31.728 4.00195 31.861 4.00195 31.996C4.00195 32.131 4.0345 32.264 4.09683 32.3838C4.15916 32.5036 4.24944 32.6065 4.36002 32.684L6.71402 34.14L6.78002 34.826L4.75802 36.712C4.68165 36.792 4.62182 36.8863 4.58198 36.9895C4.54214 37.0926 4.52306 37.2027 4.52585 37.3132C4.52864 37.4238 4.55323 37.5327 4.59822 37.6338C4.64321 37.7348 4.70771 37.826 4.78802 37.902C4.85707 37.9692 4.9377 38.0234 5.02602 38.062L7.61202 39.028L7.81202 39.696L6.20002 41.944C6.14063 42.0374 6.10028 42.1416 6.0813 42.2507C6.06233 42.3598 6.06509 42.4715 6.08944 42.5795C6.11379 42.6875 6.15924 42.7896 6.22318 42.8799C6.28712 42.9703 6.36829 43.0471 6.46202 43.106C6.54331 43.1584 6.63344 43.1957 6.72802 43.216L9.45402 43.66L9.78202 44.274L8.63602 46.788C8.59567 46.8911 8.57609 47.0011 8.57839 47.1117C8.5807 47.2224 8.60485 47.3315 8.64945 47.4328C8.69406 47.5341 8.75824 47.6255 8.83831 47.7019C8.91838 47.7784 9.01276 47.8382 9.11602 47.878C9.20712 47.914 9.30407 47.933 9.40202 47.934L12.168 47.838L12.606 48.37L11.972 51.066C11.9337 51.2853 11.984 51.5109 12.1118 51.6932C12.2397 51.8754 12.4347 51.9994 12.654 52.038C12.7505 52.0559 12.8495 52.0559 12.946 52.038L15.636 51.4L16.168 51.836L16.07 54.6C16.0753 54.8224 16.1686 55.0337 16.3294 55.1875C16.4903 55.3412 16.7056 55.4248 16.928 55.42C17.026 55.419 17.1229 55.4 17.214 55.364L19.728 54.218L20.34 54.546L20.784 57.27C20.8323 57.487 20.9647 57.6761 21.1522 57.7957C21.3396 57.9153 21.5668 57.9557 21.784 57.908C21.8786 57.8877 21.9687 57.8504 22.05 57.798L24.29 56.184L24.958 56.384L25.924 58.968C25.9687 59.0693 26.0329 59.1609 26.1131 59.2373C26.1932 59.3137 26.2877 59.3735 26.391 59.4133C26.4943 59.4531 26.6045 59.472 26.7152 59.469C26.8259 59.4661 26.935 59.4413 27.036 59.396C27.1243 59.3574 27.205 59.3032 27.274 59.236L29.16 57.214L29.846 57.282L31.302 59.636C31.3658 59.7267 31.4469 59.8039 31.5407 59.8631C31.6345 59.9223 31.739 59.9624 31.8484 59.981C31.9577 59.9996 32.0696 59.9963 32.1777 59.9715C32.2858 59.9466 32.3878 59.9005 32.478 59.836C32.556 59.7817 32.6238 59.714 32.678 59.636L34.134 57.282L34.82 57.214L36.706 59.236C36.786 59.3124 36.8803 59.3722 36.9835 59.412C37.0867 59.4519 37.1967 59.471 37.3073 59.4682C37.4178 59.4654 37.5267 59.4408 37.6278 59.3958C37.7288 59.3508 37.82 59.2863 37.896 59.206C37.9633 59.137 38.0175 59.0563 38.056 58.968L39.022 56.384L39.69 56.184L41.93 57.798C42.0234 57.8574 42.1277 57.8977 42.2367 57.9167C42.3458 57.9357 42.4575 57.9329 42.5655 57.9086C42.6735 57.8842 42.7756 57.8388 42.8659 57.7748C42.9563 57.7109 43.0331 57.6297 43.092 57.536C43.1445 57.4547 43.1817 57.3646 43.202 57.27L43.646 54.546L44.258 54.218L46.772 55.364C46.8748 55.4041 46.9846 55.4235 47.0949 55.4212C47.2052 55.4189 47.314 55.3948 47.4151 55.3504C47.5161 55.3061 47.6074 55.2422 47.6838 55.1625C47.7601 55.0828 47.82 54.9889 47.86 54.886C47.896 54.7949 47.915 54.698 47.916 54.6L47.82 51.832L48.35 51.396L51.044 52.03C51.2634 52.069 51.4892 52.0192 51.6718 51.8917C51.8545 51.7642 51.979 51.5693 52.018 51.35C52.0323 51.2532 52.0323 51.1548 52.018 51.058L51.4 48.366L51.836 47.834L54.602 47.93C54.7125 47.9274 54.8214 47.903 54.9225 47.8583C55.0235 47.8135 55.1148 47.7493 55.1909 47.6692C55.2671 47.5891 55.3267 47.4948 55.3664 47.3916C55.406 47.2885 55.4249 47.1785 55.422 47.068C55.4208 46.9707 55.4018 46.8745 55.366 46.784L54.22 44.27L54.548 43.656L57.274 43.212C57.4911 43.1637 57.6801 43.0313 57.7997 42.8439C57.9193 42.6564 57.9597 42.4292 57.912 42.212C57.8916 42.1159 57.8536 42.0244 57.8 41.942L56.188 39.702L56.388 39.034L58.974 38.068C59.075 38.0235 59.1663 37.9596 59.2426 37.8798C59.3189 37.8 59.3787 37.706 59.4187 37.6031C59.4586 37.5002 59.4779 37.3905 59.4753 37.2801C59.4728 37.1698 59.4486 37.061 59.404 36.96C59.3653 36.8701 59.3104 36.7881 59.242 36.718L57.22 34.832L57.286 34.146L59.64 32.69C59.7506 32.6125 59.8409 32.5096 59.9032 32.3898C59.9655 32.27 59.9981 32.137 59.9981 32.002C59.9981 31.867 59.9655 31.734 59.9032 31.6142C59.8409 31.4944 59.7506 31.3915 59.64 31.314L57.288 29.856Z" fill="url(#paint0_radial_155_63)"/>
<defs>
<radialGradient id="paint0_radial_155_63" cx="0" cy="0" r="1" gradientUnits="userSpaceOnUse" gradientTransform="translate(32.0294 32.6738) rotate(-30.0007) scale(27.9954 16.8069)">
<stop stop-color="#7D7D7D"/>
<stop offset="0.267" stop-color="#7E7C7A"/>
<stop offset="0.45" stop-color="#817871"/>
<stop offset="0.608" stop-color="#867162"/>
<stop offset="0.753" stop-color="#8D684C"/>
<stop offset="0.886" stop-color="#965C30"/>
<stop offset="1" stop-color="#A04F12"/>
</radialGradient>
</defs>
</svg>
