<svg width="64" height="64" viewBox="0 0 64 64" fill="none" xmlns="http://www.w3.org/2000/svg">
<g clip-path="url(#clip0_150_6)">
<path d="M63.565 31.2187L60.8375 29.53C60.8163 29.28 60.795 29.0387 60.7688 28.795L63.1088 26.6075C63.223 26.5007 63.308 26.3666 63.3558 26.2177C63.4037 26.0689 63.4128 25.9103 63.3822 25.757C63.3517 25.6037 63.2826 25.4607 63.1813 25.3416C63.0801 25.2225 62.9502 25.1311 62.8038 25.0762L59.8038 23.9512C59.7363 23.7162 59.6688 23.4787 59.595 23.2462L61.47 20.6425C61.5612 20.5154 61.6185 20.3672 61.6363 20.2118C61.6542 20.0564 61.6321 19.899 61.5722 19.7546C61.5122 19.6101 61.4164 19.4834 61.2937 19.3863C61.1711 19.2893 61.0257 19.2251 60.8713 19.2L57.6938 18.6812C57.5813 18.465 57.47 18.25 57.3525 18.0375L58.6875 15.11C58.7524 14.9675 58.7797 14.8109 58.767 14.6549C58.7543 14.4989 58.702 14.3487 58.615 14.2186C58.5279 14.0885 58.4091 13.9828 58.2698 13.9115C58.1304 13.8402 57.9752 13.8057 57.8188 13.8112L54.5913 13.925C54.4421 13.74 54.2917 13.5567 54.14 13.375L54.875 10.23C54.9106 10.0777 54.9067 9.9188 54.8638 9.76838C54.8208 9.61797 54.7402 9.48099 54.6296 9.37039C54.519 9.25978 54.3821 9.17921 54.2316 9.13627C54.0812 9.09333 53.9224 9.08945 53.77 9.125L50.625 9.86625C50.4442 9.71375 50.2609 9.56333 50.075 9.415L50.1888 6.1875C50.1954 6.03056 50.1617 5.87453 50.0909 5.73433C50.0201 5.59412 49.9145 5.47442 49.7842 5.38665C49.6539 5.29888 49.5033 5.24598 49.3468 5.233C49.1902 5.22002 49.033 5.24739 48.89 5.3125L45.9625 6.65375C45.75 6.53625 45.5338 6.42375 45.3188 6.3125L44.8 3.135C44.7749 2.98062 44.7108 2.83522 44.6137 2.71257C44.5167 2.58992 44.3899 2.49407 44.2454 2.43411C44.101 2.37415 43.9436 2.35206 43.7882 2.36993C43.6328 2.38781 43.4846 2.44505 43.3575 2.53625L40.75 4.4075C40.5175 4.33375 40.2813 4.26625 40.045 4.19875L38.92 1.19875C38.8651 1.05237 38.7738 0.922427 38.6547 0.821202C38.5356 0.719978 38.3926 0.650825 38.2393 0.620287C38.0859 0.589749 37.9274 0.598836 37.7785 0.646689C37.6297 0.694542 37.4956 0.779577 37.3888 0.893748L35.2013 3.23375C34.9575 3.2075 34.7125 3.18625 34.4663 3.165L32.7813 0.434998C32.6989 0.301907 32.5839 0.192064 32.4472 0.115887C32.3105 0.0397101 32.1565 -0.000274658 32 -0.000274658C31.8435 -0.000274658 31.6896 0.0397101 31.5529 0.115887C31.4161 0.192064 31.3011 0.301907 31.2188 0.434998L29.53 3.1625C29.28 3.18375 29.0388 3.205 28.795 3.23125L26.6075 0.891248C26.5007 0.777077 26.3666 0.692042 26.2178 0.644189C26.0689 0.596336 25.9104 0.587249 25.7571 0.617787C25.6037 0.648325 25.4608 0.717478 25.3416 0.818702C25.2225 0.919927 25.1312 1.04987 25.0763 1.19625L23.9513 4.19625C23.715 4.265 23.4775 4.33125 23.2438 4.40625L20.6413 2.53125C20.5142 2.44005 20.366 2.38281 20.2106 2.36493C20.0552 2.34706 19.8978 2.36915 19.7534 2.42911C19.6089 2.48907 19.4822 2.58492 19.3851 2.70757C19.288 2.83022 19.2239 2.97562 19.1988 3.13L18.68 6.30625C18.4638 6.41875 18.2488 6.53 18.035 6.6475L15.11 5.31875C14.9671 5.25364 14.8098 5.22627 14.6533 5.23925C14.4967 5.25223 14.3461 5.30513 14.2159 5.3929C14.0856 5.48067 13.98 5.60037 13.9092 5.74058C13.8383 5.88078 13.8046 6.03681 13.8113 6.19375L13.9263 9.42C13.74 9.56875 13.5513 9.71875 13.3738 9.87125L10.23 9.125C10.0777 9.08945 9.91883 9.09333 9.76842 9.13627C9.618 9.17921 9.48102 9.25978 9.37042 9.37039C9.25981 9.48099 9.17924 9.61797 9.1363 9.76838C9.09336 9.9188 9.08948 10.0777 9.12503 10.23L9.86628 13.375C9.71253 13.5562 9.56253 13.7412 9.41378 13.9262L6.18753 13.8125C6.03122 13.8078 5.87625 13.8427 5.73704 13.9139C5.59782 13.9852 5.47888 14.0905 5.39128 14.22C5.30449 14.3502 5.25239 14.5004 5.23993 14.6564C5.22746 14.8123 5.25503 14.9689 5.32003 15.1112L6.65253 18.0375C6.53503 18.25 6.42378 18.4662 6.31128 18.6825L3.13503 19.2C2.98066 19.2251 2.83525 19.2893 2.7126 19.3863C2.58995 19.4834 2.4941 19.6101 2.43414 19.7546C2.37418 19.899 2.35209 20.0564 2.36996 20.2118C2.38784 20.3672 2.44508 20.5154 2.53628 20.6425L4.41128 23.245C4.33753 23.4787 4.27003 23.7162 4.20128 23.9525L1.20128 25.0775C1.0549 25.1324 0.924957 25.2237 0.823733 25.3428C0.722508 25.462 0.653355 25.605 0.622817 25.7583C0.59228 25.9116 0.601367 26.0702 0.64922 26.219C0.697072 26.3678 0.782108 26.502 0.896279 26.6087L3.23628 28.7962C3.21003 29.04 3.18878 29.285 3.16753 29.5312L0.435029 31.2187C0.301938 31.3011 0.192094 31.4161 0.115918 31.5528C0.0397406 31.6896 -0.000244141 31.8435 -0.000244141 32C-0.000244141 32.1565 0.0397406 32.3104 0.115918 32.4472C0.192094 32.5839 0.301938 32.6989 0.435029 32.7812L3.16253 34.47C3.18378 34.72 3.20503 34.96 3.23128 35.2038L0.891279 37.3913C0.777108 37.498 0.692072 37.6322 0.64422 37.781C0.596367 37.9298 0.58728 38.0884 0.617817 38.2417C0.648355 38.395 0.717508 38.538 0.818733 38.6572C0.919957 38.7763 1.0499 38.8676 1.19628 38.9225L4.19628 40.0475C4.26503 40.2838 4.33128 40.52 4.40628 40.7537L2.53128 43.3575C2.44008 43.4846 2.38284 43.6328 2.36496 43.7882C2.34709 43.9436 2.36918 44.101 2.42914 44.2454C2.4891 44.3899 2.58495 44.5166 2.7076 44.6137C2.83025 44.7107 2.97566 44.7749 3.13003 44.8L6.30753 45.3187C6.42003 45.5337 6.53128 45.75 6.64878 45.9613L5.32003 48.89C5.25503 49.0323 5.22746 49.1889 5.23993 49.3449C5.25239 49.5008 5.30449 49.6511 5.39128 49.7812C5.47632 49.9133 5.59475 50.0206 5.73458 50.0921C5.87441 50.1637 6.03067 50.197 6.18753 50.1888L9.41628 50.075C9.56378 50.26 9.71378 50.4433 9.86628 50.625L9.12503 53.77C9.08948 53.9223 9.09336 54.0812 9.1363 54.2316C9.17924 54.382 9.25981 54.519 9.37042 54.6296C9.48102 54.7402 9.618 54.8208 9.76842 54.8637C9.91883 54.9067 10.0777 54.9105 10.23 54.875L13.375 54.1338C13.5567 54.2863 13.7404 54.4367 13.9263 54.585L13.8113 57.8125C13.8057 57.9689 13.8402 58.1242 13.9115 58.2635C13.9828 58.4028 14.0885 58.5217 14.2186 58.6087C14.3487 58.6957 14.4989 58.7481 14.6549 58.7607C14.8109 58.7734 14.9676 58.7461 15.11 58.6813L18.0388 57.3462C18.25 57.4637 18.4663 57.575 18.6813 57.6875L19.2 60.865C19.225 61.0195 19.2891 61.1649 19.3862 61.2876C19.4832 61.4104 19.6101 61.5062 19.7546 61.5661C19.8992 61.6259 20.0566 61.6479 20.212 61.6297C20.3675 61.6116 20.5156 61.554 20.6425 61.4625L23.2463 59.5875C23.4788 59.6625 23.7163 59.7288 23.9525 59.7975L25.0775 62.7975C25.1327 62.9436 25.2242 63.0733 25.3433 63.1743C25.4624 63.2753 25.6053 63.3444 25.7585 63.3749C25.9117 63.4054 26.0702 63.3964 26.2189 63.3487C26.3677 63.3011 26.5018 63.2163 26.6088 63.1025L28.7963 60.7625C29.04 60.7888 29.2863 60.81 29.5313 60.8312L31.22 63.5588C31.3024 63.6918 31.4174 63.8017 31.5541 63.8779C31.6908 63.954 31.8448 63.994 32.0013 63.994C32.1578 63.994 32.3117 63.954 32.4484 63.8779C32.5852 63.8017 32.7002 63.6918 32.7825 63.5588L34.4713 60.8312C34.7213 60.81 34.9625 60.7887 35.2063 60.7612L37.3938 63.1025C37.5007 63.2163 37.6349 63.3011 37.7837 63.3487C37.9324 63.3964 38.0908 63.4054 38.244 63.3749C38.3972 63.3444 38.5401 63.2753 38.6593 63.1743C38.7784 63.0733 38.8699 62.9436 38.925 62.7975L40.05 59.7975C40.2863 59.7288 40.5225 59.6625 40.7563 59.5875L43.3588 61.4625C43.4857 61.554 43.6339 61.6116 43.7893 61.6297C43.9447 61.6479 44.1021 61.6259 44.2467 61.5661C44.3912 61.5062 44.5181 61.4104 44.6151 61.2876C44.7122 61.1649 44.7763 61.0195 44.8013 60.865L45.32 57.6875C45.535 57.575 45.7513 57.4637 45.9638 57.3462L48.8913 58.6813C49.0337 58.7461 49.1904 58.7734 49.3464 58.7607C49.5024 58.7481 49.6526 58.6957 49.7827 58.6087C49.9128 58.5217 50.0185 58.4028 50.0898 58.2635C50.1611 58.1242 50.1956 57.9689 50.19 57.8125L50.0763 54.585C50.2613 54.4358 50.4446 54.2854 50.6263 54.1338L53.77 54.875C53.9224 54.9105 54.0812 54.9067 54.2316 54.8637C54.3821 54.8208 54.519 54.7402 54.6296 54.6296C54.7402 54.519 54.8208 54.382 54.8638 54.2316C54.9067 54.0812 54.9106 53.9223 54.875 53.77L54.1338 50.625C54.2863 50.4442 54.4367 50.2608 54.585 50.075L57.8125 50.1888C57.9692 50.1958 58.125 50.1619 58.2646 50.0904C58.4042 50.019 58.5228 49.9124 58.6088 49.7812C58.6958 49.6512 58.7481 49.501 58.7608 49.345C58.7735 49.1891 58.7461 49.0324 58.6813 48.89L57.3463 45.9625C57.4638 45.75 57.575 45.5337 57.6875 45.3187L60.865 44.8C61.0194 44.7749 61.1648 44.7107 61.2875 44.6137C61.4101 44.5166 61.506 44.3899 61.5659 44.2454C61.6259 44.101 61.648 43.9436 61.6301 43.7882C61.6122 43.6328 61.555 43.4846 61.4638 43.3575L59.5888 40.7537C59.6625 40.52 59.73 40.2838 59.7975 40.0475L62.7975 38.9225C62.9439 38.8676 63.0739 38.7763 63.1751 38.6572C63.2763 38.538 63.3455 38.395 63.376 38.2417C63.4065 38.0884 63.3974 37.9298 63.3496 37.781C63.3017 37.6322 63.2167 37.498 63.1025 37.3913L60.7625 35.2038C60.7888 34.96 60.81 34.715 60.8313 34.47L63.5588 32.7812C63.6919 32.6989 63.8017 32.5839 63.8779 32.4472C63.9541 32.3104 63.9941 32.1565 63.9941 32C63.9941 31.8435 63.9541 31.6896 63.8779 31.5528C63.8017 31.4161 63.6919 31.3011 63.5588 31.2187H63.565ZM44.69 47.3537C44.2392 47.2569 43.7683 47.3432 43.381 47.5936C42.9938 47.8439 42.7218 48.2379 42.625 48.6888L41.67 53.1475C38.5974 54.5394 35.2606 55.2517 31.8874 55.2357C28.5143 55.2198 25.1843 54.4759 22.125 53.055L21.17 48.5975C21.1227 48.3747 21.0318 48.1634 20.9028 47.9758C20.7737 47.7881 20.609 47.6277 20.4179 47.5037C20.2268 47.3797 20.0132 47.2946 19.7892 47.2532C19.5652 47.2118 19.3353 47.215 19.1125 47.2625L15.1738 48.1075C14.4431 47.3536 13.7641 46.5514 13.1413 45.7062H32.2875C32.5025 45.7062 32.6488 45.67 32.6488 45.4675V38.6937C32.6488 38.4975 32.5025 38.455 32.2875 38.455H26.6838L26.69 34.1613H32.75C33.3013 34.1613 35.7075 34.3213 36.4738 37.395C36.7125 38.3388 37.245 41.4125 37.6063 42.395C37.9675 43.4975 39.4313 45.7025 40.9938 45.7025H50.875C50.2129 46.5899 49.4886 47.4291 48.7075 48.2137L44.69 47.3537ZM47.9113 51.665C47.9113 52.0415 47.7997 52.4096 47.5907 52.7227C47.3816 53.0358 47.0845 53.28 46.7367 53.4244C46.389 53.5688 46.0063 53.6068 45.6369 53.5338C45.2676 53.4608 44.9281 53.28 44.6614 53.0142C44.3948 52.7484 44.2129 52.4096 44.1386 52.0405C44.0644 51.6713 44.1013 51.2885 44.2445 50.9403C44.3877 50.5921 44.6309 50.2942 44.9434 50.0841C45.2558 49.874 45.6235 49.7612 46 49.76H46.055C46.5508 49.774 47.0215 49.9809 47.367 50.3367C47.7125 50.6925 47.9056 51.1691 47.905 51.665H47.9113ZM19.7088 51.58C19.7085 51.9567 19.5966 52.3248 19.3872 52.6379C19.1778 52.951 18.8803 53.1949 18.5322 53.339C18.1842 53.483 17.8012 53.5206 17.4318 53.4471C17.0624 53.3735 16.7231 53.1921 16.4567 52.9258C16.1904 52.6594 16.009 52.3201 15.9354 51.9507C15.8619 51.5813 15.8995 51.1984 16.0435 50.8503C16.1876 50.5023 16.4316 50.2047 16.7446 49.9953C17.0577 49.7859 17.4259 49.674 17.8025 49.6738H17.8588C18.3534 49.69 18.8224 49.898 19.1665 50.2537C19.5106 50.6095 19.7028 51.0851 19.7025 51.58H19.7088ZM8.69628 29.2687L12.8 27.4437C13.0085 27.3514 13.1968 27.2188 13.354 27.0536C13.5112 26.8884 13.6343 26.6939 13.7163 26.4811C13.7982 26.2683 13.8374 26.0414 13.8317 25.8134C13.8259 25.5855 13.7752 25.3609 13.6825 25.1525L12.8363 23.25H16.1563V38.2163H9.45628C8.62924 35.3105 8.37119 32.2724 8.69628 29.2687ZM7.28878 24.7612C7.28862 24.5111 7.33773 24.2633 7.43331 24.0321C7.52889 23.801 7.66908 23.5909 7.84586 23.4138C8.02264 23.2368 8.23255 23.0964 8.46361 23.0005C8.69467 22.9046 8.94236 22.8552 9.19253 22.855H9.25003C9.62433 22.8656 9.98722 22.9862 10.2933 23.2018C10.5995 23.4175 10.8353 23.7186 10.9712 24.0675C11.1072 24.4164 11.1374 24.7976 11.0579 25.1635C10.9784 25.5294 10.7929 25.8638 10.5244 26.1249C10.256 26.386 9.91659 26.5621 9.5486 26.6314C9.18061 26.7006 8.80037 26.6599 8.45539 26.5143C8.11042 26.3686 7.81602 26.1246 7.60897 25.8126C7.40193 25.5006 7.29143 25.1345 7.29128 24.76L7.28878 24.7612ZM26.6838 27.8225L26.69 23.4075H34.5975C35.0075 23.4075 37.4813 23.8787 37.4813 25.735C37.4813 27.2712 35.5825 27.8225 34.0213 27.8225H26.6838ZM49.875 38.3387C48.65 38.48 47.2963 37.8237 47.125 37.0775C46.4025 33.0162 45.2013 32.1525 43.3038 30.6525C45.6613 29.1587 48.1113 26.9475 48.1113 23.995C48.1113 20.805 45.925 18.7962 44.4363 17.81C42.3413 16.435 40.0263 16.1562 39.4025 16.1562H14.54C17.9779 12.3153 22.5861 9.71481 27.6513 8.7575L30.585 11.8325C30.7419 11.9976 30.9299 12.1301 31.1382 12.2223C31.3464 12.3144 31.5709 12.3645 31.7986 12.3696C32.0263 12.3747 32.2528 12.3348 32.465 12.252C32.6772 12.1693 32.8709 12.0454 33.035 11.8875L36.3175 8.7625C39.6613 9.38885 42.8287 10.7356 45.5997 12.7092C48.3706 14.6828 50.6788 17.2359 52.3638 20.1912L50.1138 25.2625C49.931 25.6843 49.9214 26.161 50.0873 26.5898C50.2531 27.0185 50.581 27.3648 51 27.5537L55.3238 29.47C55.4586 30.8218 55.4753 32.1828 55.3738 33.5375H52.9638C52.725 33.5375 52.6275 33.6962 52.6275 33.9287V35.0312C52.625 37.625 51.1638 38.1975 49.875 38.3387ZM30 7.52625C30.001 7.02231 30.2016 6.5393 30.558 6.18296C30.9143 5.82662 31.3973 5.62599 31.9013 5.625H31.9575C32.3321 5.63532 32.6952 5.75586 33.0016 5.97153C33.308 6.18719 33.5439 6.48841 33.68 6.83751C33.816 7.1866 33.8461 7.56806 33.7665 7.93416C33.6869 8.30027 33.5011 8.63476 33.2323 8.8958C32.9635 9.15684 32.6238 9.33284 32.2555 9.40176C31.8872 9.47069 31.5068 9.42949 31.1618 9.28332C30.8168 9.13714 30.5226 8.89249 30.316 8.57996C30.1093 8.26744 29.9994 7.90091 30 7.52625ZM54.605 26.75C54.3549 26.75 54.1071 26.7007 53.876 26.605C53.6449 26.5093 53.4349 26.3689 53.258 26.192C53.0811 26.0151 52.9408 25.8051 52.845 25.574C52.7493 25.3429 52.7 25.0952 52.7 24.845C52.7 24.5948 52.7493 24.3471 52.845 24.116C52.9408 23.8849 53.0811 23.6749 53.258 23.498C53.4349 23.3211 53.6449 23.1807 53.876 23.085C54.1071 22.9893 54.3549 22.94 54.605 22.94H54.66C55.1653 22.9473 55.6469 23.155 55.999 23.5174C56.3511 23.8798 56.5448 24.3673 56.5375 24.8725C56.5302 25.3777 56.3225 25.8594 55.9601 26.2115C55.5977 26.5636 55.1103 26.7573 54.605 26.75Z" fill="black"/>
</g>
<defs>
<clipPath id="clip0_150_6">
<rect width="64" height="64" fill="white"/>
</clipPath>
</defs>
</svg>
