<svg width="64" height="64" viewBox="0 0 64 64" fill="none" xmlns="http://www.w3.org/2000/svg">
<path d="M57.376 4H6.624C5.1748 4 4 5.1748 4 6.624V57.376C4 58.8252 5.1748 60 6.624 60H57.376C58.8252 60 60 58.8252 60 57.376V6.624C60 5.1748 58.8252 4 57.376 4Z" fill="#3178C6"/>
<path fill-rule="evenodd" clip-rule="evenodd" d="M36.49 47.518V53.654C37.6049 54.2041 38.793 54.5913 40.018 54.804C41.4336 55.0649 42.8705 55.1934 44.31 55.188C45.7129 55.1942 47.1126 55.0527 48.486 54.766C49.7191 54.5173 50.8955 54.0426 51.956 53.366C52.9407 52.7305 53.7524 51.8605 54.318 50.834C55.331 48.7086 55.4647 46.2694 54.69 44.046C54.3634 43.2144 53.8761 42.4552 53.256 41.812C52.5913 41.127 51.8356 40.5368 51.01 40.058C50.0601 39.5015 49.0731 39.011 48.056 38.59C47.256 38.258 46.536 37.9353 45.896 37.622C45.3275 37.3498 44.7835 37.0293 44.27 36.664C43.868 36.3817 43.5188 36.031 43.238 35.628C42.9967 35.2613 42.8706 34.8309 42.876 34.392C42.8708 33.9879 42.9833 33.5911 43.2 33.25C43.4354 32.8931 43.7494 32.5948 44.118 32.378C44.5679 32.1115 45.0584 31.9203 45.57 31.812C46.1976 31.6724 46.8391 31.6053 47.482 31.612C48.0226 31.6142 48.5625 31.653 49.098 31.728C49.6765 31.8042 50.2487 31.9225 50.81 32.082C51.3814 32.2404 51.9402 32.441 52.482 32.682C53.0074 32.9168 53.5102 33.1993 53.984 33.526V27.8C52.9982 27.4269 51.9759 27.1588 50.934 27C49.6758 26.8167 48.4054 26.7305 47.134 26.742C45.7442 26.7351 44.3586 26.8929 43.006 27.212C41.7829 27.4897 40.6202 27.9864 39.574 28.678C38.6016 29.3262 37.7985 30.1979 37.232 31.22C36.6318 32.3553 36.3349 33.6263 36.37 34.91C36.3277 36.6073 36.8867 38.2648 37.948 39.59C39.2524 41.0582 40.8971 42.1838 42.738 42.868C43.578 43.2147 44.3613 43.554 45.088 43.886C45.7434 44.1781 46.3736 44.5239 46.972 44.92C47.4535 45.235 47.8771 45.6309 48.224 46.09C48.528 46.5074 48.6893 47.0117 48.684 47.528C48.6867 47.9149 48.5874 48.2957 48.396 48.632C48.1813 48.9918 47.8828 49.2944 47.526 49.514C47.0772 49.7868 46.5867 49.9841 46.074 50.098C45.4058 50.247 44.7225 50.3174 44.038 50.308C42.6947 50.3044 41.3622 50.0676 40.1 49.608C38.7821 49.1312 37.5596 48.4235 36.49 47.518ZM26.182 32.242H34.182V27.188H11.876V32.242H19.84V54.75H26.182V32.242Z" fill="white"/>
</svg>
