<svg width="64" height="64" viewBox="0 0 64 64" fill="none" xmlns="http://www.w3.org/2000/svg">
<g clip-path="url(#clip0_150_48)">
<path d="M63.9091 31.9207C63.9091 49.5492 49.6179 63.8408 31.9884 63.8408C14.3584 63.8408 0.0673828 49.5492 0.0673828 31.9207C0.0673828 14.2913 14.3589 0 31.9884 0C49.6181 0 63.9091 14.2913 63.9091 31.9207Z" fill="#DD4814"/>
<path d="M10.2833 27.6583C7.9285 27.6583 6.02075 29.566 6.02075 31.9208C6.02075 34.2743 7.9285 36.1823 10.2833 36.1823C12.637 36.1823 14.5448 34.2743 14.5448 31.9208C14.5448 29.566 12.637 27.6583 10.2833 27.6583ZM40.712 47.0278C38.6738 48.2053 37.9745 50.8103 39.152 52.8475C40.3283 54.886 42.9332 55.5848 44.9717 54.4075C47.01 53.2313 47.709 50.6263 46.5318 48.5875C45.3555 46.5505 42.749 45.8518 40.712 47.0278ZM19.5405 31.9208C19.5405 27.7093 21.6325 23.9883 24.8333 21.7353L21.7175 16.5168C17.989 19.0093 15.2145 22.8178 14.0615 27.2785C15.407 28.376 16.268 30.0473 16.268 31.9205C16.268 33.7928 15.407 35.464 14.0615 36.5618C15.213 41.0235 17.9875 44.8325 21.7175 47.325L24.8333 42.105C21.6325 39.8533 19.5405 36.1325 19.5405 31.9208ZM31.9885 19.4715C38.4918 19.4715 43.8273 24.4575 44.3873 30.8165L50.4598 30.727C50.1613 26.0325 48.1103 21.818 44.9593 18.719C43.3388 19.3313 41.4668 19.2375 39.8493 18.305C38.2285 17.3698 37.2123 15.792 36.9345 14.0795C35.3235 13.6338 33.6598 13.4076 31.9883 13.407C29.1422 13.4042 26.3341 14.0599 23.7835 15.3228L26.7448 20.6295C28.3871 19.8651 30.177 19.4698 31.9885 19.4715ZM31.9885 44.369C30.1771 44.3706 28.3873 43.9754 26.745 43.211L23.7838 48.5173C26.3339 49.7817 29.1423 50.4381 31.9888 50.435C33.6603 50.4347 35.3241 50.2079 36.9348 49.7608C37.2125 48.0483 38.229 46.472 39.8493 45.5353C41.4683 44.601 43.339 44.509 44.9593 45.1213C48.1105 42.0223 50.1613 37.8078 50.4603 33.1133L44.386 33.0238C43.8273 39.3845 38.492 44.369 31.9885 44.369ZM40.7105 16.811C42.749 17.988 45.3543 17.291 46.5303 15.2525C47.7078 13.214 47.0102 10.6088 44.9717 9.43125C42.9332 8.25525 40.3283 8.95375 39.1505 10.9923C37.9748 13.0298 38.6735 15.6348 40.7105 16.811Z" fill="white"/>
</g>
<defs>
<clipPath id="clip0_150_48">
<rect width="64" height="64" fill="white"/>
</clipPath>
</defs>
</svg>
