<svg width="16" height="9" viewBox="0 0 16 9" fill="none" xmlns="http://www.w3.org/2000/svg">
<path d="M0.918679 9V7.90483L5.27379 1.79403H0.910156V0.272727H7.59197V1.3679L3.2326 7.47869H7.6005V9H0.918679ZM10.7976 5.21591V9H8.98224V0.272727H10.7464V3.60938H10.8232C10.9709 3.22301 11.2095 2.92045 11.5391 2.7017C11.8686 2.48011 12.282 2.36932 12.7791 2.36932C13.2337 2.36932 13.63 2.46875 13.968 2.66761C14.3089 2.86364 14.5732 3.14631 14.7607 3.51562C14.951 3.8821 15.0447 4.32102 15.0419 4.83239V9H13.2266V5.15625C13.2294 4.75284 13.1271 4.43892 12.9197 4.21449C12.7152 3.99006 12.4283 3.87784 12.0589 3.87784C11.8118 3.87784 11.593 3.9304 11.4027 4.03551C11.2152 4.14062 11.0675 4.29403 10.9595 4.49574C10.8544 4.6946 10.8004 4.93466 10.7976 5.21591Z" fill="white"/>
</svg>
